<?xml version="1.0" encoding="utf-8"?>
<!-- Generator: Adobe Illustrator 28.3.0, SVG Export Plug-In . SVG Version: 6.00 Build 0)  -->
<svg version="1.1" id="Calque_1" xmlns="http://www.w3.org/2000/svg" xmlns:xlink="http://www.w3.org/1999/xlink" x="0px" y="0px"
	 viewBox="0 0 600 600" style="enable-background:new 0 0 600 600;" xml:space="preserve">
<style type="text/css">
	.st0{fill:#B8F541;}
	.st1{fill:#E6FBBB;}
	.st2{fill:#EDFCCF;}
</style>
<rect width="600" height="600"/>
<g>
	<path class="st0" d="M487.8,162.8c-2.1,1.3-1.6,3.6-1.9,5.5c-10.3,52.7-20.8,105.3-30.8,158c-4.5,23.8-15.6,43.4-34.6,58.4
		c-1.1,0.9-2.2,1.6-4.1,3c1.5-7.9,2.9-15.1,4.3-22.3c3.1-16.1,6.7-32.2,9-48.4c5.1-35-3.4-66.8-24.6-95
		c-20.7-27.5-48.3-44-82.2-49.8c-7.5-1.3-15.2-1.8-22.8-1.8c-18.2,0-36.5,0-54.7,0c-1.4,0-2.8,0-4.2,0c-0.2-1.6,1-1.8,1.7-2.3
		c15.4-10.8,32.5-16.9,51.4-17c61.3-0.1,122.6,0,183.9-0.1c4.9,0,7.4,2.6,9.4,6.3C487.8,159.3,487.8,161,487.8,162.8z"/>
	<path class="st1" d="M118.3,448.8c0-0.2,0-0.5,0-0.7c2.1-1.8,4.6-1.3,6.9-1.3c60.2,0,120.4,0,180.5,0c0.9,0,1.8,0,2.7,0
		c1.3,0,2.6,0.1,3.7,0.7c0.5,0.3,0.7,0.7,0.5,1.3C247.9,448.8,183.1,448.8,118.3,448.8z"/>
	<path class="st2" d="M312.6,448.8c0-0.2,0-0.5,0-0.7c1.5-1.4,3.1-1.4,4.6,0c0,0.2,0,0.5,0,0.7C315.7,448.8,314.2,448.8,312.6,448.8
		z"/>
	<path class="st0" d="M317.2,448.1c-1.5,0-3.1,0-4.6,0c-0.4,0-0.8-0.1-1.1-0.1c-64.4,0-128.8,0-193.2,0c-5.6-2.6-6.9-5.3-5.7-11.2
		c10.1-51.7,20.3-103.3,30.1-155.1c3-16,6.8-31.6,16.4-45.2c16.9-23.8,39.9-37.8,69.2-39.4c27.9-1.5,55.8-1.5,83.7,0.2
		c21,1.3,39.7,9.7,55.8,23.3c19.9,16.8,31.7,38.2,35.7,63.9c2.2,13.9,0.5,27.6-2.3,41.3c-3.9,19.1-7.6,38.2-11.2,57.3
		c-6.3,33.3-33.8,59.5-67.4,64.1C320.8,447.6,319,447.9,317.2,448.1z"/>
</g>
</svg>
