<?xml version="1.0" encoding="utf-8"?>
<!-- Generator: Adobe Illustrator 28.3.0, SVG Export Plug-In . SVG Version: 6.00 Build 0)  -->
<svg version="1.1" id="Calque_1" xmlns="http://www.w3.org/2000/svg" xmlns:xlink="http://www.w3.org/1999/xlink" x="0px" y="0px"
	 viewBox="0 0 600 600" style="enable-background:new 0 0 600 600;" xml:space="preserve">
<style type="text/css">
	.st0{fill:#FFFFFF;}
	.st1{fill:#0B429D;}
	.st2{fill:#4D81C3;}
	.st3{fill:#153772;}
	.st4{fill:#073A90;}
	.st5{fill:#012F81;}
	.st6{fill:#1863D0;}
	.st7{fill:#175FCA;}
	.st8{fill:#1967D5;}
	.st9{fill:#165CC4;}
	.st10{fill:#1557BC;}
	.st11{fill:#114DAE;}
	.st12{fill:#0E48A5;}
	.st13{fill:#1251B2;}
	.st14{fill:#1978F1;}
	.st15{fill:#1559C0;}
	.st16{fill:#1353B7;}
	.st17{fill:#186ADC;}
</style>
<g>
	<rect x="0.5" y="0.5" class="st0" width="599" height="599"/>
	<path d="M599,1v598H1V1H599 M600,0H0v600h600V0L600,0z"/>
</g>
<g>
	<path class="st1" d="M371.2,358.5c3.3,5.2,6.5,10.4,9.8,15.6c0.6,1,1.1,2.1,1.6,3.2c-2.5,1.4-1.1,3.6-0.2,4.5
		c2.3,2.1,0.8,3.3-0.2,5c-2.3,3.9-4.8,7.9-6.3,12.1c-2.2,5.8-3.6,11.9-5.3,17.9c-0.7,0-1.3,0-2,0c-3.7,0-7.5-0.1-11.2,0
		c-1,0-1.9,0.6-2.9,0.9c-2.9,0.1-5.8,0.2-8.6,0.2c-15.3,0-30.7,0-46,0c-1.2,0-2.4-0.2-3.6-0.2c0-0.3,0-0.6,0-0.9c0.4,0,0.9,0,1.3,0
		c2.7-0.2,5.4-0.4,8-0.6c3.1,0.2,6.3,0.4,9.4,0.6c2.9,0,5.8,0,8.7,0c4.5,0,8.9,0,13.4,0c3.3,0,6.7,0,10,0c3.6,0,4.4-1,4.8-4.5
		c0.2-1.5,1-3,1.8-4.4c1-1.7,3.3-3.1,3.3-4.7c0-3.1,1.1-5.3,3-7.5c0.6-0.7,0.9-1.8,1.3-2.6c2.1-4,0.5-8.8,3.7-13
		c2.4-3.2,3.1-7.9,3.1-12.3c0-1.1,0.7-2.2,1-3.4c1.1,0.5,1.8,0.8,3.3,1.4c-0.8-2.1-1.6-3.5-1.8-4.9
		C370.3,360.2,370.9,359.3,371.2,358.5z"/>
	<path class="st2" d="M263.3,416.2c0.9,0.5,1.8,1,2.7,1.5c-1.1,0.1-2.2,0.2-3.3,0.3c-0.9,0-1.9,0-2.8,0c-3.5,0-7.1,0-10.6,0
		c-0.9,0-1.9,0-2.8,0c-29.2,0-58.5,0-87.7,0c-1-0.1-1.9-0.2-2.9-0.3c-7.9-0.7-15.2-3-21.7-7.8c0.1-0.1,0.2-0.3,0.4-0.4
		c1,0.2,2.1,0.2,2.8,0.7c6.7,4.7,14.3,6.6,22.2,6.6c33.3,0.2,66.6,0.1,99.9,0.1C260.7,416.8,262,416.4,263.3,416.2z"/>
	<path class="st3" d="M368.5,416.8c0.7,0,1.3,0,2,0c7.4,0,14.7,0,22.1,0c19.8,0,39.6,0.1,59.5,0c4.3,0,8.4-0.6,12.5-2.5
		c4-1.9,8.5-2.5,12.8-3.7c-6.5,4.5-13.7,6.6-21.5,7.2c-0.3,0-0.6,0.1-0.9,0.1c-13.2,0.1-26.3,0.1-39.5,0.2c-14.3,0-28.6,0-42.9,0
		c-1.3,0-2.7-0.1-4-0.2C368.5,417.4,368.5,417.1,368.5,416.8z"/>
	<path class="st4" d="M392.6,416.8c-7.4,0-14.7,0-22.1,0c1.7-6,3.2-12.1,5.3-17.9c1.6-4.2,4.1-8.2,6.3-12.1c1-1.8,2.5-3,0.2-5
		c-1-0.9-2.3-3.1,0.2-4.5c2.2,2.8,4.4,5.5,6.4,8.4c2.9,4,5.7,8.1,8.3,12.2c0.6,0.9,0.9,2.7,0.4,3.3
		C394.1,405.8,394.8,411.8,392.6,416.8z"/>
	<g>
		<path class="st5" d="M487.9,341.7c0.2,0.4,0.4,0.9,0.6,1.3c0.3,2.2,0.7,4.4,0.9,5.8c1.5,2,2.7,3.4,3.6,4.9
			c3.5,6.4,3.6,13.6,4.1,20.6c0.1,1.5,0.4,3.4-0.3,4.6c-3.4,6-3.1,13.5-8,18.8c-2.9,3.1-6,5.9-9.1,8.8c-1.2,1.1-3.6,1.5-2.3,4
			c0,0-0.2,0.1-0.2,0.1c-4.3,1.2-8.9,1.8-12.8,3.7c-4.1,1.9-8.2,2.5-12.5,2.5c-19.8,0.1-39.6,0-59.5,0c2.2-5.1,1.5-11,5.2-15.7
			c0.5-0.6,0.1-2.4-0.4-3.3c-2.7-4.2-5.5-8.2-8.3-12.2c-2.1-2.9-4.3-5.6-6.4-8.4c-0.5-1.1-1-2.2-1.6-3.2c-3.2-5.2-6.5-10.4-9.8-15.6
			c-2.2-4-4.2-8.1-6.5-12.1c-1.2-2.1-2.8-4.1-4.2-6.1c-1.3-2.2-2.7-4.5-4-6.7c-0.5-0.4-0.9-0.9-1.4-1.3l0,0
			c-0.2-0.7-0.4-1.4-0.6-2.1c-0.7-1.3-1.4-2.6-2.1-3.9c-3-5.5-6.1-11-9.1-16.5c-0.1-0.2-0.6-0.3-0.9-0.4c-1.6-3.3-3-6.6-4.7-9.8
			c-1.8-3.1-4-6-6-9c-1.8-3.1-3.6-6.2-5.4-9.3c-2.1-4.2-4.2-8.5-6.5-12.6c-1.6-2.9-3.7-5.6-5.5-8.3c-1.4-2.4-2.7-4.9-4.1-7.3
			c-0.2-0.4-0.4-0.8-0.6-1.3c-1.1-2-2.3-4-3.4-6c0.2-0.2,0.4-0.4,0.6-0.6c1.4-0.2,2.7-0.4,4.1-0.7c-0.3-0.3-0.6-0.5-0.9-0.8
			c1.3-2.5,2.4-5,3.8-7.5c2.6-4.8,5.2-9.6,8-14.3c1.4-2.3,4.4-4,4.9-6.3c0.7-3.2,2.2-5.6,3.6-8.4c7.3-13.5,18.5-21.3,33.7-23
			c3.8-0.4,7.7,0.2,11.5-0.1c6.4-0.6,11,3.7,16.3,5.8c3.1,1.2,5.5,4.3,8.1,6.6c1.3,1.2,2.4,2.6,3.5,4c0.3,0.4,0.3,1.1,0.7,1.3
			c3.4,1.4,4.3,4.5,5.5,7.5c0.7,1.8,1,4.4,4.1,3.6l-0.1,0.2c0,0,0.1-0.2,0.1-0.2c0.5,1.9,0.8,3.9,1.6,5.6c1.2,2.4,2.8,4.5,4.2,6.8
			c1.6,2.6,3.2,5.2,4.7,7.9c1.3,2.3-0.7,6.7,4.1,6.9c0.1,0,0.1,0.2,0.2,0.3c2.5,4.5,5,9,7.4,13.5c1.3,2.3,2.3,4.7,3.7,7
			c3.6,6.1,7.3,12.1,10.8,18.2c4.1,7.1,8.2,14.2,12.1,21.4c2.1,3.8,3.6,7.9,5.9,11.5c1.4,2.2,3.7,3.9,5.6,5.8c0,0,0,0,0,0
			c-0.2,1.6-0.3,3.3-0.5,4.9c2.2,1.7,3.8,3.9,5.5,6c0.8,1,2,1.8,3,2.6c0,0,0,0,0,0c0.7,1.3,1.4,2.7,2.1,4c0,0,0,0,0,0
			C483.8,338,484.9,340.5,487.9,341.7z"/>
		<path class="st6" d="M310.2,253.1c1.4,2.4,2.7,4.9,4.1,7.3c0,0.9-0.3,1.9,0.1,2.7c1.3,2.9,3,5.6,4.1,8.5c0.8,2.1,1,4.5,1.5,6.9
			c-5.6-1.4-5.8-1.3-5.8,4.6c0,0.6,0.2,1.2,0,1.7c-0.6,1.2-1.3,2.4-1.9,3.6c-0.7,1.3-1.9,2.7-1.9,4.1c0,3.2-0.2,6-3.6,7.6
			c-0.5,0.2-1,1-1.1,1.6c-1,5.3-1.8,10.6-2.9,15.8c-0.3,1.3-1.3,3.2-2.2,3.3c-2.4,0.5-2.2,1.9-2.5,3.6c-0.6,5-1.4,10-2.2,15
			c-0.1,0.5-0.3,1.2-0.7,1.5c-2.6,2-2.6,4.8-2.4,7.6c0.2,2.2-0.5,3.7-2.9,4.2c-2.3,0.4-3,1.8-3.4,4.1c-0.5,2.8,0.7,6.8-3.8,7.8
			c-0.3,0.1-0.5,0.9-0.6,1.5c-0.3,3.1-0.9,6.2-0.6,9.3c0.5,4.7-1.7,7.6-5.4,9.8c-0.9,0.6-2.2,1.3-2.5,2.1c-1.2,4.6-2,9.2-3,13.8
			c-0.6,3.1,2,6.9-1.9,9.4c-0.3,0.2-0.1,1.1-0.2,1.6c-0.2,1.6-0.4,3.3-0.7,4.9c0,0.2,0,0.4-0.1,0.6c-0.2,0.1-0.5,0.3-0.7,0.4
			c-0.4,0-0.8-0.1-1.2-0.1c-0.9-0.5-1.8-1-2.7-1.5c-1.4-0.9-2.7-1.8-4.1-2.7c-1.2-2.2-2.4-4.5-3.6-6.7c-0.3-0.5-1.1-1.1-1-1.5
			c0.9-3,1.2-6.6,3.1-8.8c1.5-1.7,2.2-3,2.2-5.1c0-1.3-0.2-2.7,0.2-4c0.2-0.8,1.2-1.4,1.8-2.1c0.5,0.7,1,1.4,1.4,2.2
			c0.3,0.6,0.3,1.4,0.4,2.1c0.8-1.1,0.8-2.2,1-3.3c0.7-4,1.3-8.1,2.3-12c0.8-3,2.2-5.9,3.1-8.9c0.8-2.6,1.1-5.4,2-8
			c0.5-1.4,2.4-2.3,2.9-3.6c0.9-2.4,1.1-5,1.8-7.5c0.5-1.5,1.3-3,2.1-4.4c0.5-0.9,1.5-1.6,1.9-2.5c1.2-2.6,2.3-5.4,3.4-8
			c0.6-1.3,1.6-2.5,1.9-3.8c1.1-4.5,1.5-9.1,2.9-13.5c1.4-4.2,5.1-7.7,3.9-12.8c-0.1-0.5,1-1.3,2-2.4c0.4,2.2,0.7,3.6,1,5
			c1.2-5.4,1.8-10.7,2.3-16.1c0.2-2.3,0.1-4.9,2.9-4.2c2.2-5.5,4.3-10.7,6.4-15.8c0.2-0.5,0.7-1.1,1.1-1.1c3.6-0.5,2.8-3.5,2.8-5.6
			C311.3,258.3,310.6,255.7,310.2,253.1z"/>
		<path class="st3" d="M413.6,212.8c-3.1,0.9-3.4-1.8-4.1-3.6c-1.2-3-2.1-6.1-5.5-7.5c-0.3-0.1-0.4-0.9-0.7-1.3
			c-1.1-1.4-2.2-2.8-3.5-4c-2.6-2.3-5-5.4-8.1-6.6c-5.3-2.1-9.9-6.4-16.3-5.8c-3.8,0.3-7.7-0.3-11.5,0.1c-15.2,1.8-26.3,9.6-33.7,23
			c-1.5,2.7-3,5.2-3.6,8.4c-0.5,2.3-3.5,4-4.9,6.3c-2.9,4.7-5.4,9.5-8,14.3c-1.3,2.5-2.5,5-3.8,7.5c0.3,0.3,0.6,0.5,0.9,0.8
			c-1.4,0.2-2.7,0.4-4.1,0.7c0-0.3,0-0.5,0-0.8c8-13.8,15.6-27.8,24.1-41.2c18-28.5,60.7-27.6,78.2,1.2
			C410.6,207.1,412,210,413.6,212.8z"/>
		<path class="st3" d="M473.8,317.5c-1.9-1.9-4.2-3.5-5.6-5.8c-2.3-3.7-3.8-7.8-5.9-11.5c-4-7.2-8-14.3-12.1-21.4
			c-3.5-6.1-7.2-12.1-10.8-18.2c-1.3-2.3-2.4-4.7-3.7-7c-2.5-4.5-5-9-7.4-13.5c-0.1-0.1-0.1-0.3-0.2-0.3c-4.9-0.2-2.8-4.5-4.1-6.9
			c-1.5-2.7-3.1-5.3-4.7-7.9c-1.4-2.3-3-4.4-4.2-6.8c-0.8-1.7-1.1-3.7-1.6-5.6c6.2,10.7,12.5,21.3,18.7,32
			c12.3,21.2,24.5,42.4,36.8,63.7C470.8,311.4,472.2,314.5,473.8,317.5z"/>
		<path class="st3" d="M477.5,410.5c-1.3-2.5,1.1-2.9,2.3-4c3-2.9,6.2-5.7,9.1-8.8c4.9-5.2,4.6-12.8,8-18.8c0.7-1.2,0.4-3.1,0.3-4.6
			c-0.5-7-0.6-14.2-4.1-20.6c-0.9-1.6-2.2-3-3.6-4.9c-0.2-1.4-0.6-3.6-0.9-5.8c8.3,11.6,12,24.3,9,38.5
			C494.9,393.8,488.2,403.6,477.5,410.5z"/>
		<path class="st2" d="M134.1,409.8c-11.6-7.7-18-18.7-19.7-32.4c-1.4-11.4,1.3-21.9,7.5-31.6c1.9-3,3.7-6.1,5.5-9.2
			c0.1,0.1,0.2,0.2,0.4,0.3c-1.5,3-2.8,6-4.5,8.8c-5.7,9.9-9.5,20.2-7.7,32c1.6,10.1,5.7,18.7,13.1,25.8c2,1.9,3.9,3.8,5.8,5.7
			C134.4,409.6,134.3,409.7,134.1,409.8z"/>
		<path class="st2" d="M263.5,187.2c7.1,2.9,13,7.7,17,14c7.4,11.9,14.1,24.3,21,36.4c-0.1,0.1-0.2,0.2-0.2,0.2
			c-0.6-0.6-1.3-1.1-1.7-1.9c-5.1-8.5-10.4-17-15.1-25.7c-4.8-8.8-10.7-16.3-19.7-21.2c-0.6-0.3-1.1-1.1-1.6-1.7
			C263.3,187.4,263.4,187.3,263.5,187.2z"/>
		<path class="st2" d="M127.4,336.7c9.5-16.3,18.9-32.5,28.4-48.8c0,0,0.2,0.2,0.2,0.2c-2.5,4.8-4.8,9.6-7.4,14.2
			c-3.3,5.9-6.7,11.8-10.1,17.5c-3.5,5.8-7.1,11.4-10.7,17.1C127.7,336.9,127.6,336.8,127.4,336.7z"/>
		<path class="st2" d="M161.9,277.3c6.5-11.5,13.1-22.9,19.6-34.4c1.7-2.9,3.4-5.7,5.2-8.5c0.1,0.1,0.2,0.2,0.3,0.2
			c-2.5,5.1-4.7,10.4-7.5,15.4c-3.3,6.1-6.8,12-10.5,17.9c-2.1,3.3-4.6,6.4-6.9,9.6C162.1,277.5,161.9,277.3,161.9,277.3z"/>
		<path class="st2" d="M209.9,196.6c10.9-13.3,34.3-18.6,49.4-11.2c0,0-0.2,0.2-0.2,0.2c-2.1-0.4-4.1-0.8-6.2-1.2
			c-13.5-2.5-25.9-0.6-36.9,8.3c-1.9,1.5-3.9,2.8-5.8,4.3C210.2,196.8,210.1,196.7,209.9,196.6z"/>
		<path class="st3" d="M481.8,331c-1-0.9-2.1-1.6-3-2.6c-1.7-2.1-3.3-4.3-5.5-6c0.2-1.6,0.3-3.3,0.5-4.9
			C476.5,322,479.1,326.5,481.8,331z"/>
		<path class="st2" d="M199.2,212.7c3.4-5.1,6.7-10.3,10.1-15.4c0.1,0.1,0.2,0.2,0.3,0.3c-3.4,5.1-6.7,10.3-10.1,15.4
			C199.4,212.9,199.3,212.8,199.2,212.7z"/>
		<path class="st2" d="M186.7,234.3c2.5-4.3,4.9-8.5,7.4-12.8c0.1,0.1,0.2,0.2,0.2,0.2c-1.3,4.9-3.6,9.3-7.4,12.8
			C186.8,234.5,186.8,234.4,186.7,234.3z"/>
		<path class="st2" d="M156.3,287.1c1.9-3.3,3.7-6.6,5.6-9.8c0,0,0.2,0.2,0.2,0.2c-1.8,3.3-3.7,6.6-5.5,9.9
			C156.5,287.3,156.4,287.2,156.3,287.1z"/>
		<path class="st2" d="M194,221.6c1.7-3,3.5-5.9,5.2-8.9c0.1,0.1,0.2,0.2,0.3,0.3c-1.8,2.9-3.5,5.9-5.3,8.8
			C194.2,221.7,194.1,221.6,194,221.6z"/>
		<path class="st2" d="M306.7,244.3c0,0.3,0,0.5,0,0.8c-0.2,0.2-0.4,0.4-0.6,0.6c0,0-0.1,0-0.1,0c-1.6-2.6-3.1-5.3-4.7-7.9
			c0.1-0.1,0.2-0.2,0.2-0.2c1.1,1.7,2.1,3.5,3.3,5.2C305.3,243.4,306.1,243.8,306.7,244.3z"/>
		<path class="st3" d="M487.9,341.7c-3.1-1.2-4.1-3.6-4.1-6.7C485.2,337.2,486.6,339.4,487.9,341.7z"/>
		<path class="st3" d="M483.9,335c-0.7-1.3-1.4-2.7-2.1-4C482.5,332.3,483.2,333.6,483.9,335z"/>
		<path class="st2" d="M259.3,185.3c1.4,0.6,2.8,1.2,4.2,1.8c-0.1,0.1-0.2,0.2-0.3,0.3c-1.4-0.6-2.7-1.3-4.1-1.9
			C259.1,185.6,259.3,185.3,259.3,185.3z"/>
		<path class="st2" d="M209.3,197.3c0.2-0.2,0.4-0.5,0.6-0.7c0.1,0.1,0.2,0.2,0.3,0.3c-0.2,0.2-0.4,0.5-0.6,0.7
			C209.5,197.5,209.4,197.4,209.3,197.3z"/>
		<path class="st2" d="M155.8,287.9c0.2-0.3,0.3-0.6,0.5-0.8c0.1,0.1,0.2,0.2,0.3,0.3c-0.2,0.2-0.4,0.5-0.6,0.7
			C156,288.1,155.8,287.9,155.8,287.9z"/>
		<path class="st7" d="M272.6,417.4c-0.7,0-1.3,0.1-2,0.1c-0.9-0.2-1.8-0.4-2.7-0.6c0.2-1.6,0.5-3.3,0.7-4.9
			c0.1-0.6-0.1-1.4,0.2-1.6c3.9-2.5,1.2-6.3,1.9-9.4c0.9-4.6,1.8-9.2,3-13.8c0.2-0.9,1.5-1.6,2.5-2.1c3.7-2.2,5.9-5.1,5.4-9.8
			c-0.3-3,0.3-6.2,0.6-9.3c0-0.5,0.3-1.4,0.6-1.5c4.5-1,3.3-5,3.8-7.8c0.4-2.3,1.1-3.7,3.4-4.1c2.3-0.4,3-2,2.9-4.2
			c-0.2-2.8-0.3-5.6,2.4-7.6c0.4-0.3,0.7-0.9,0.7-1.5c0.8-5,1.6-10,2.2-15c0.2-1.7,0.1-3.2,2.5-3.6c0.9-0.2,1.9-2.1,2.2-3.3
			c1.1-5.2,1.9-10.6,2.9-15.8c0.1-0.6,0.6-1.3,1.1-1.6c3.4-1.5,3.5-4.4,3.6-7.6c0-1.4,1.2-2.7,1.9-4.1c0.6-1.2,1.4-2.4,1.9-3.6
			c0.2-0.5,0-1.1,0-1.7c0-5.9,0.2-6,5.8-4.6c-0.5-2.4-0.6-4.8-1.5-6.9c-1.1-2.9-2.8-5.6-4.1-8.5c-0.3-0.7-0.1-1.8-0.1-2.7
			c1.9,2.8,3.9,5.4,5.5,8.3c2.3,4.1,4.3,8.4,6.5,12.6c-0.5,3.3-0.9,6.6-1.4,10c-0.3,2.1,0,5.1-1.3,6c-3.6,2.7-2.7,6.7-4.2,10
			c-0.5,1.2-1.9,2-2.9,2.9c-0.8,0.8-2.3,1.7-2.2,2.5c0.4,6.6-1.1,12.8-3.2,18.9c-1.4,4-1.7,8.6-6.4,10.7c-0.8,0.3-1,2.1-1.3,3.2
			c-0.7,2.4-1.2,4.8-2,7.2c-0.6,1.9-1.6,3.7-2,5.6c-1.4,5.7-0.5,12.2-5.9,16.5c-0.6,0.5-0.7,1.8-0.9,2.7c-0.4,2.4,0,5.5-1.4,7
			c-3.6,3.9-3.9,8.3-4.2,13.2c-0.1,2.4-1.7,4.7-2.9,7c-0.9,1.8-2.5,3.3-2.9,5.1c-0.5,2.2-0.1,4.7-0.1,7c-0.7,0-1.3,0-2,0
			C277,416.1,274.7,415,272.6,417.4z"/>
		<path class="st8" d="M310.2,253.1c0.4,2.6,1.1,5.2,1.1,7.9c0,2.1,0.8,5.1-2.8,5.6c-0.4,0.1-0.9,0.7-1.1,1.1
			c-2.1,5.2-4.2,10.4-6.4,15.8c-2.7-0.7-2.7,1.9-2.9,4.2c-0.5,5.3-1,10.7-2.3,16.1c-0.3-1.4-0.5-2.7-1-5c-1,1.2-2.1,1.9-2,2.4
			c1.2,5.1-2.6,8.5-3.9,12.8c-1.4,4.3-1.9,9-2.9,13.5c-0.3,1.3-1.3,2.5-1.9,3.8c-1.2,2.7-2.2,5.4-3.4,8c-0.4,0.9-1.4,1.6-1.9,2.5
			c-0.8,1.4-1.6,2.9-2.1,4.4c-0.7,2.5-0.9,5.1-1.8,7.5c-0.5,1.4-2.4,2.3-2.9,3.6c-1,2.6-1.2,5.4-2,8c-0.9,3-2.3,5.9-3.1,8.9
			c-1,4-1.6,8-2.3,12c-0.2,1.1-0.2,2.2-1,3.3c-0.1-0.7-0.1-1.4-0.4-2.1c-0.3-0.8-0.9-1.4-1.4-2.2c-0.6,0.7-1.6,1.3-1.8,2.1
			c-0.3,1.3-0.2,2.7-0.2,4c0,2-0.7,3.4-2.2,5.1c-1.9,2.2-2.2,5.8-3.1,8.8c-0.1,0.4,0.7,0.9,1,1.5c1.2,2.2,2.4,4.5,3.6,6.7
			c-3.4-2-6.7-4-10.1-6c-0.4-2.3-0.4-4.8-1.3-7c-1.1-2.7-2.9-5,0.3-7.6c0.5-0.4,0.2-1.9,0.3-2.9c0.1-1.3-0.4-3,0.2-4
			c2.7-4.4,3.1-10.1,7.8-13.3c0.8-0.5,1-1.9,1.3-3c0.9-2.4,1.7-4.7,2.5-7.1c0.5-1.5,1.4-3,1.2-4.4c-0.7-6.8,0.1-12.9,5.9-17.4
			c0.6-0.5,0.9-1.5,1.1-2.3c0.8-2.6,1.1-5.5,2.4-7.8c1-1.8,1.5-3.1,1.1-5.2c-0.5-2.3-1.2-5.4,3.1-5.5c0.7,0,1.5-1.7,2-2.7
			c0.4-0.8,0.4-1.7,0.6-2.5c0.9-3.2,2.4-6.4,2.7-9.7c0.4-4.2-0.3-8.5,2.4-12.2c0.3-0.5,0.4-1.3,0.4-1.9c0.2-3.7,1.7-6.7,5.5-7.8
			c2.2-0.6,2.8-1.9,2.6-3.9c-0.2-2.1,0.4-3.5,2.3-4.8c2.5-1.7,3.3-6.8,1.7-9.1c0-0.7,0-1.3,0-2c1.5-0.1,3-0.1,3.5-0.2
			c1.7-3.6,3.4-6.2,4.3-9.1c0.6-2.2,1.5-3,3.6-2.8c0.1,0.6,0.2,1.1,0.4,1.8c1-0.5,1.7-0.8,2.4-1.2
			C309.8,252.2,310,252.6,310.2,253.1z"/>
		<path class="st9" d="M281.3,416.8c0-2.3-0.4-4.8,0.1-7c0.4-1.8,2-3.3,2.9-5.1c1.1-2.3,2.8-4.6,2.9-7c0.2-4.9,0.5-9.3,4.2-13.2
			c1.4-1.5,0.9-4.6,1.4-7c0.2-0.9,0.2-2.2,0.9-2.7c5.3-4.4,4.4-10.8,5.9-16.5c0.5-1.9,1.5-3.7,2-5.6c0.7-2.4,1.3-4.8,2-7.2
			c0.3-1.1,0.5-2.8,1.3-3.2c4.7-2.1,5-6.7,6.4-10.7c2.1-6.1,3.5-12.3,3.2-18.9c0-0.8,1.4-1.7,2.2-2.5c1-1,2.4-1.8,2.9-2.9
			c1.5-3.3,0.6-7.3,4.2-10c1.2-0.9,0.9-3.9,1.3-6c0.5-3.3,0.9-6.6,1.4-10c1.8,3.1,3.6,6.2,5.4,9.3c0.1,1.2,0.2,2.5,0.5,3.6
			c0.3,1.1,0.9,2.1,1.4,3.2c-1.8,1.9-3.1,3.9-2.8,6.8c0.1,0.9-1.3,1.9-1.9,2.9c-1,1.7-2,3.4-2.6,5.3c-0.8,2.7-1.1,5.5-1.9,8.2
			c-1.2,3.7-3,7.1-3.9,10.8c-1,4.3-0.9,8.8-5,11.8c-0.3,0.2-0.4,0.8-0.6,1.2c-1.6,5.1-3.1,10.2-4.8,15.2c-2.2,7-4.4,14-6.9,20.9
			c-0.6,1.6-2.1,2.8-3.2,4.2c-0.4,0.5-1,1-1.1,1.6c-0.6,2.5-1.9,5.2-1.4,7.4c1.6,7.1-4.3,11.5-5.8,17.4c-0.1,0.3-0.4,0.6-0.7,0.7
			c-2.7,0.6-2.7,2.9-3,5C285.8,416.8,283.5,416.8,281.3,416.8z"/>
		<path class="st10" d="M333.6,297.5c-0.5-1.1-1.1-2.1-1.4-3.2c-0.3-1.2-0.3-2.4-0.5-3.6c2,3,4.2,5.9,6,9c1.8,3.1,3.2,6.5,4.7,9.8
			c0.7,2.5,1.3,5,2,7.5c-0.7,1.1-1.4,2.2-2,3.3c-1.4,2.8-3.8,5.6-3.8,8.4c0,4.7-1.8,8.5-3.1,12.7c-0.6,1.9-0.8,4.4-2.2,5.4
			c-2.9,2.2-2.5,5.1-3.1,8c-0.6,3-0.4,6.4-3.5,8.5c-0.5,0.3-0.8,1-1,1.6c-1.4,4.2-2.6,8.4-4.1,12.6c-0.9,2.7-2,5.3-3,7.9
			c-0.8,2.1-1.8,4.2-2.3,6.3c-0.9,3.6-1.5,7.2-2.3,10.8c-0.2,0.8-1,1.6-1.8,1.9c-5,2.4-5.7,7.2-6.7,11.9c-2.7,0.2-5.4,0.4-8.1,0.6
			c1-4-0.7-8.9,4.2-11.5c0.5-0.3,0.3-1.9,0.5-2.8c0.9-4.7,1.7-9.5,2.9-14.2c0.9-3.5,2.8-6.7,3.6-10.2c0.5-2.1,0.5-3.6,3.1-3.7
			c0.7,0,2.1-1.2,2.1-1.8c-0.2-4,0.9-7.6,3.4-10.7c0.3-0.4,0.2-1.1,0.2-1.6c0.2-5.8,1.2-11.6,4.5-16.2c2.4-3.3,3-6.5,3-10.2
			c0-1,1.1-2.7,1.9-2.7c4.2-0.4,3.7-3.3,3.1-5.9c-0.4-1.9,0-2.5,1.5-3.7c1.4-1,2.3-3.1,2.7-4.9c0.9-3.9,1.1-7.9,2-11.8
			C337,301.8,336.4,299.3,333.6,297.5z"/>
		<path class="st11" d="M337,416.8c-4.5,0-8.9,0-13.4,0c0.2-1.3,0.4-2.6,0.7-3.9c0.8-3.1-0.3-7.5,5.1-7.1c0.3-1.3,0.9-2.4,0.6-3.2
			c-1.1-3.5,0.5-6.2,2.3-9c1-1.6,1.8-3.3,2.6-5c2.3-4.9,0.1-11.4,5.3-15.4c0.1,0,0-0.2,0.1-0.3c0.7-2.8,1.2-5.6,2.1-8.3
			c1.5-4.4,3.2-8.8,5.1-13c1.6-3.5,4.1-6.5,4.8-10.6c0.5-2.6,2.7-4.9,4.2-7.3c1.3,2.2,2.7,4.5,4,6.7c-0.1,1.3-0.8,2.8-0.3,3.8
			c1.5,3.1,3,6,1.4,9.4c-1.4,3.1-2,7.4-4.4,9.1c-4.2,3-4.9,7.6-5.6,11.2c-1.1,5.8-4.2,10.5-5.6,16c-0.7,2.6-1.8,5.2-2.8,7.8
			c-1.4,3.6-2.9,7.1-4.1,10.8C338.1,411.2,337.6,414,337,416.8z"/>
		<path class="st12" d="M337,416.8c0.7-2.8,1.2-5.6,2.1-8.4c1.2-3.6,2.8-7.2,4.1-10.8c1-2.6,2.1-5.1,2.8-7.8
			c1.4-5.5,4.6-10.2,5.6-16c0.7-3.6,1.4-8.3,5.6-11.2c2.4-1.7,3-6,4.4-9.1c1.5-3.5,0.1-6.4-1.4-9.4c-0.5-1,0.2-2.5,0.3-3.8
			c1.4,2,3,3.9,4.2,6.1c2.3,4,4.4,8,6.5,12.1c-0.3,0.8-0.9,1.7-0.7,2.5c0.3,1.4,1,2.8,1.8,4.9c-1.5-0.6-2.2-0.9-3.3-1.4
			c-0.4,1.2-1.1,2.3-1,3.4c0,4.4-0.7,9.2-3.1,12.3c-3.1,4.2-1.6,9-3.7,13c-0.4,0.9-0.7,1.9-1.3,2.6c-1.8,2.2-2.9,4.4-3,7.5
			c0,1.6-2.3,3-3.3,4.7c-0.8,1.3-1.6,2.9-1.8,4.4c-0.4,3.5-1.2,4.4-4.8,4.5C343.6,416.8,340.3,416.8,337,416.8z"/>
		<path class="st13" d="M356.5,333.6c-1.5,2.4-3.7,4.7-4.2,7.3c-0.7,4.1-3.2,7.1-4.8,10.6c-1.9,4.3-3.6,8.6-5.1,13
			c-0.9,2.7-1.4,5.5-2.1,8.3c0,0.1,0,0.3-0.1,0.3c-5.2,3.9-3.1,10.4-5.3,15.4c-0.8,1.7-1.5,3.4-2.6,5c-1.8,2.8-3.4,5.4-2.3,9
			c0.3,0.8-0.4,1.9-0.6,3.2c-5.3-0.4-4.3,4-5.1,7.1c-0.3,1.3-0.5,2.6-0.7,3.9c-2.9,0-5.8,0-8.7,0c0.9-3.1,1-6.9,2.9-9.1
			c2.4-2.7,2.4-5.2,2.5-8.2c0-2.1,0.3-4,2.8-4.7c0.7-0.2,1.5-0.8,1.7-1.5c2-6.4,3.9-12.7,5.7-19.1c1.5-5.2,2.9-10.3,4-15.6
			c0.7-3.1,0.9-6.2,5-6.7c0.6-0.1,1.2-1.3,1.4-2.1c1.2-4.5,2.3-9.1,3.6-13.7c0.5-1.8,0.8-3.8,1.8-5.3c3.2-5,2.7-9.9-1.9-14
			c-0.7-2.5-1.3-5-2-7.5c0.3,0.1,0.8,0.2,0.9,0.4c3.1,5.5,6.1,11,9.1,16.5c-0.4,0.8-0.8,1.7-1.2,2.5c1.1,0.5,2.2,0.9,3.3,1.4
			c0.2,0.7,0.4,1.4,0.6,2.1c-0.1,0.1-0.2,0.2-0.3,0.3c0.1-0.1,0.2-0.2,0.3-0.3C355.6,332.7,356,333.2,356.5,333.6z"/>
		<path class="st6" d="M309.6,251.8c-0.7,0.4-1.5,0.7-2.4,1.2c-0.1-0.6-0.2-1.2-0.4-1.8c0-0.7,0-1.3,0-2c0.1-0.1,0.1-0.2,0.2-0.3
			c-0.1,0.1-0.1,0.2-0.2,0.3c-0.7-0.2-1.3-0.4-2-0.7c0.4-0.9,0.8-1.8,1.3-2.7c0,0,0.1,0,0.1,0C307.3,247.8,308.4,249.8,309.6,251.8z
			"/>
		<path class="st11" d="M354.5,330.2c-1.1-0.5-2.2-0.9-3.3-1.4c0.4-0.8,0.8-1.7,1.2-2.5C353.1,327.6,353.8,328.9,354.5,330.2z"/>
		<path class="st14" d="M306,245.8c-0.4,0.9-0.8,1.8-1.3,2.7c-0.8,0.9-1.7,1.8-2.3,2.8c-2.4,4-4.7,8-7.1,12c0,0.7,0,1.3,0,2
			c-0.9,0.9-2.1,1.8-2.7,2.9c-4,6.7-8,13.5-11.9,20.3c-2.9,5-5.7,10.1-8.7,15.1c-2.5,4.2-5.1,8.3-7.6,12.5c-3.2,5.5-6.1,11-9.3,16.5
			c-4.3,7.3-9.5,14.1-13,21.8c-2.5,5.5-5.8,10.8-6.2,17.3c-0.3,6.5-0.6,12.8,2.2,18.9c1.1,2.4,2,4.8,3.5,7c2.3,3.4,4.9,6.7,7.4,10
			c3.4,2,6.7,4,10.1,6c1.4,0.9,2.7,1.8,4.1,2.7c-1.3,0.2-2.6,0.6-3.8,0.6c-33.3,0-66.6,0.1-99.9-0.1c-7.9-0.1-15.5-2-22.2-6.6
			c-0.7-0.5-1.9-0.5-2.8-0.7c-1.9-1.9-3.8-3.9-5.8-5.7c-7.4-7.1-11.5-15.7-13.1-25.8c-1.8-11.8,2-22.1,7.7-32c1.6-2.9,3-5.9,4.5-8.8
			c3.6-5.7,7.2-11.4,10.7-17.1c3.5-5.8,6.9-11.6,10.1-17.5c2.6-4.7,4.9-9.5,7.4-14.2c0.2-0.2,0.4-0.5,0.6-0.7
			c1.8-3.3,3.7-6.6,5.5-9.9c2.3-3.2,4.8-6.3,6.9-9.6c3.6-5.9,7.2-11.8,10.5-17.9c2.7-5,5-10.2,7.5-15.4c3.8-3.5,6.1-7.8,7.4-12.8
			c1.8-2.9,3.5-5.9,5.3-8.8c3.4-5.1,6.7-10.3,10.1-15.4c0.2-0.2,0.4-0.5,0.6-0.7c1.9-1.4,3.9-2.8,5.8-4.3
			c10.9-8.8,23.4-10.7,36.9-8.3c2.1,0.4,4.1,0.8,6.2,1.2c1.4,0.6,2.7,1.3,4.1,1.9c0.5,0.6,0.9,1.3,1.6,1.7
			c9,4.8,14.9,12.3,19.7,21.2c4.7,8.7,10,17.2,15.1,25.7c0.4,0.7,1.2,1.2,1.7,1.9C302.9,240.5,304.5,243.1,306,245.8z"/>
		<path class="st15" d="M333.6,297.5c2.8,1.9,3.4,4.3,2.6,7.6c-0.9,3.9-1.1,7.9-2,11.8c-0.4,1.8-1.3,3.8-2.7,4.9
			c-1.5,1.1-2,1.8-1.5,3.7c0.6,2.6,1.1,5.5-3.1,5.9c-0.7,0.1-1.8,1.8-1.9,2.7c-0.1,3.7-0.6,6.9-3,10.2c-3.3,4.6-4.3,10.4-4.5,16.2
			c0,0.6,0.1,1.3-0.2,1.6c-2.6,3.1-3.6,6.7-3.4,10.7c0,0.6-1.3,1.8-2.1,1.8c-2.6,0.1-2.7,1.6-3.1,3.7c-0.8,3.5-2.7,6.7-3.6,10.2
			c-1.2,4.7-2,9.5-2.9,14.2c-0.2,1,0,2.5-0.5,2.8c-4.9,2.6-3.2,7.6-4.2,11.5c-0.4,0-0.9,0-1.3,0c-2.7,0-5.4,0-8.1,0
			c0.3-2.1,0.3-4.3,3-5c0.3-0.1,0.6-0.4,0.7-0.7c1.5-5.9,7.4-10.2,5.8-17.4c-0.5-2.3,0.8-5,1.4-7.4c0.1-0.6,0.7-1.1,1.1-1.6
			c1.1-1.4,2.6-2.7,3.2-4.2c2.5-6.9,4.6-13.9,6.9-20.9c1.6-5.1,3.2-10.2,4.8-15.2c0.1-0.4,0.2-1,0.6-1.2c4.1-2.9,4-7.5,5-11.8
			c0.9-3.7,2.7-7.2,3.9-10.8c0.8-2.7,1.1-5.5,1.9-8.2c0.6-1.9,1.6-3.6,2.6-5.3c0.6-1,2-2,1.9-2.9
			C330.5,301.3,331.8,299.4,333.6,297.5z"/>
		<path class="st16" d="M344.3,316.9c4.6,4.2,5.1,9,1.9,14c-1,1.5-1.3,3.5-1.8,5.3c-1.2,4.6-2.3,9.1-3.6,13.7
			c-0.2,0.8-0.8,2-1.4,2.1c-4.1,0.5-4.4,3.6-5,6.7c-1.2,5.2-2.6,10.4-4,15.6c-1.8,6.4-3.7,12.8-5.7,19.1c-0.2,0.6-1,1.3-1.7,1.5
			c-2.5,0.7-2.8,2.6-2.8,4.7c0,3-0.1,5.5-2.5,8.2c-1.9,2.1-2,6-2.9,9.1c-3.1-0.2-6.3-0.4-9.4-0.6c1-4.7,1.7-9.4,6.7-11.9
			c0.7-0.4,1.6-1.2,1.8-1.9c0.9-3.6,1.4-7.2,2.3-10.8c0.6-2.2,1.5-4.2,2.3-6.3c1-2.6,2.1-5.2,3-7.9c1.4-4.2,2.7-8.4,4.1-12.6
			c0.2-0.6,0.5-1.3,1-1.6c3.1-2,2.9-5.5,3.5-8.5c0.6-2.8,0.2-5.8,3.1-8c1.3-1,1.6-3.5,2.2-5.4c1.3-4.1,3.1-8,3.1-12.7
			c0-2.8,2.4-5.6,3.8-8.4C342.9,319.1,343.7,318,344.3,316.9z"/>
		<path class="st17" d="M249.1,407.4c-2.5-3.3-5.1-6.5-7.4-10c-1.4-2.2-2.4-4.6-3.5-7c-2.8-6-2.5-12.4-2.2-18.9
			c0.3-6.5,3.6-11.9,6.2-17.3c3.5-7.6,8.7-14.5,13-21.8c3.2-5.4,6.1-11,9.3-16.5c2.4-4.2,5.1-8.3,7.6-12.5c3-5,5.8-10.1,8.7-15.1
			c3.9-6.8,7.9-13.6,11.9-20.3c0.7-1.1,1.8-1.9,2.7-2.9c1.5,2.4,0.8,7.4-1.7,9.1c-1.8,1.3-2.5,2.7-2.3,4.8c0.2,2-0.4,3.3-2.6,3.9
			c-3.8,1.1-5.2,4.1-5.5,7.8c0,0.7-0.1,1.4-0.4,1.9c-2.6,3.8-2,8-2.4,12.2c-0.3,3.3-1.8,6.5-2.7,9.7c-0.2,0.8-0.3,1.8-0.6,2.5
			c-0.5,1-1.3,2.7-2,2.7c-4.3,0.1-3.5,3.2-3.1,5.5c0.4,2.1,0,3.4-1.1,5.2c-1.3,2.3-1.6,5.2-2.4,7.8c-0.2,0.8-0.5,1.8-1.1,2.3
			c-5.8,4.5-6.6,10.6-5.9,17.4c0.1,1.4-0.7,3-1.2,4.4c-0.8,2.4-1.7,4.8-2.5,7.1c-0.4,1-0.6,2.4-1.3,3c-4.8,3.2-5.1,8.9-7.8,13.3
			c-0.6,1-0.1,2.6-0.2,4c0,1,0.2,2.5-0.3,2.9c-3.2,2.5-1.4,4.9-0.3,7.6C248.7,402.6,248.7,405.1,249.1,407.4z"/>
		<path class="st17" d="M295.4,263.3c2.3-4,4.7-8,7.1-12c0.6-1,1.5-1.9,2.3-2.8c0.7,0.2,1.3,0.4,2,0.7v0c0,0.7,0,1.3,0,2
			c-2.1-0.2-3,0.6-3.6,2.8c-0.8,2.9-2.6,5.6-4.3,9.1C298.4,263.1,296.9,263.2,295.4,263.3z"/>
		<path class="st11" d="M355.1,332.3c-0.1,0.1-0.2,0.2-0.3,0.3C354.9,332.5,355,332.4,355.1,332.3
			C355.1,332.3,355.1,332.3,355.1,332.3z"/>
		<path class="st17" d="M306.8,249.2c0.1-0.1,0.1-0.2,0.2-0.3C306.9,249,306.8,249.1,306.8,249.2L306.8,249.2z"/>
	</g>
</g>
</svg>
