<?xml version="1.0" encoding="UTF-8"?>
<svg id="Calque_1" xmlns="http://www.w3.org/2000/svg" xmlns:xlink="http://www.w3.org/1999/xlink" version="1.1" viewBox="0 0 126.6 126.6">
  <!-- Generator: Adobe Illustrator 29.5.1, SVG Export Plug-In . SVG Version: 2.1.0 Build 141)  -->
  <defs>
    <style>
      .st0 {
        fill: url(#Dégradé_sans_nom_5);
      }

      .st1 {
        fill: url(#Dégradé_sans_nom_518);
      }

      .st2 {
        fill: url(#Dégradé_sans_nom_514);
      }

      .st3 {
        fill: url(#Dégradé_sans_nom_513);
      }

      .st4 {
        fill: url(#Dégradé_sans_nom_517);
      }

      .st5 {
        fill: url(#Dégradé_sans_nom_512);
      }

      .st6 {
        fill: url(#Dégradé_sans_nom_511);
      }

      .st7 {
        fill: url(#Dégradé_sans_nom_510);
      }

      .st8 {
        fill: url(#Dégradé_sans_nom_516);
      }

      .st9 {
        fill: url(#Dégradé_sans_nom_519);
      }

      .st10 {
        fill: url(#Dégradé_sans_nom_515);
      }

      .st11 {
        fill: url(#Dégradé_sans_nom_522);
      }

      .st12 {
        fill: url(#Dégradé_sans_nom_527);
      }

      .st13 {
        fill: url(#Dégradé_sans_nom_524);
      }

      .st14 {
        fill: url(#Dégradé_sans_nom_523);
      }

      .st15 {
        fill: url(#Dégradé_sans_nom_521);
      }

      .st16 {
        fill: url(#Dégradé_sans_nom_525);
      }

      .st17 {
        fill: url(#Dégradé_sans_nom_528);
      }

      .st18 {
        fill: url(#Dégradé_sans_nom_529);
      }

      .st19 {
        fill: url(#Dégradé_sans_nom_526);
      }

      .st20 {
        fill: url(#Dégradé_sans_nom_520);
      }

      .st21 {
        fill: url(#Dégradé_sans_nom_530);
      }

      .st22 {
        fill: #fff;
      }

      .st23 {
        fill: url(#Dégradé_sans_nom_51);
      }

      .st24 {
        fill: url(#Dégradé_sans_nom_53);
      }

      .st25 {
        fill: url(#Dégradé_sans_nom_55);
      }

      .st26 {
        fill: url(#Dégradé_sans_nom_52);
      }

      .st27 {
        fill: url(#Dégradé_sans_nom_59);
      }

      .st28 {
        fill: url(#Dégradé_sans_nom_54);
      }

      .st29 {
        fill: url(#Dégradé_sans_nom_57);
      }

      .st30 {
        fill: url(#Dégradé_sans_nom_56);
      }

      .st31 {
        fill: url(#Dégradé_sans_nom_58);
      }

      .st32 {
        fill: url(#Dégradé_sans_nom_31);
      }

      .st32, .st33, .st34 {
        isolation: isolate;
        opacity: .6;
      }

      .st33 {
        fill: url(#Dégradé_sans_nom_32);
      }

      .st34 {
        fill: url(#Dégradé_sans_nom_3);
      }
    </style>
    <linearGradient id="Dégradé_sans_nom_5" data-name="Dégradé sans nom 5" x1="271.4" y1="383.1" x2="374.2" y2="383.1" gradientTransform="translate(-234.2 -332.3)" gradientUnits="userSpaceOnUse">
      <stop offset="0" stop-color="#ff7028"/>
      <stop offset="1" stop-color="#ffcd4d"/>
    </linearGradient>
    <linearGradient id="Dégradé_sans_nom_51" data-name="Dégradé sans nom 5" y1="395.4" y2="395.4" xlink:href="#Dégradé_sans_nom_5"/>
    <linearGradient id="Dégradé_sans_nom_52" data-name="Dégradé sans nom 5" x1="318.4" y1="402" x2="238.3" y2="402" xlink:href="#Dégradé_sans_nom_5"/>
    <linearGradient id="Dégradé_sans_nom_53" data-name="Dégradé sans nom 5" x1="318.4" y1="421.1" x2="238.3" y2="421.1" xlink:href="#Dégradé_sans_nom_5"/>
    <linearGradient id="Dégradé_sans_nom_54" data-name="Dégradé sans nom 5" y1="407.9" y2="407.9" gradientTransform="translate(272.3 -368.4) rotate(61.5)" xlink:href="#Dégradé_sans_nom_5"/>
    <linearGradient id="Dégradé_sans_nom_55" data-name="Dégradé sans nom 5" x1="318.4" y1="407.9" x2="238.3" y2="407.9" gradientTransform="translate(272.3 -368.4) rotate(61.5)" xlink:href="#Dégradé_sans_nom_5"/>
    <linearGradient id="Dégradé_sans_nom_3" data-name="Dégradé sans nom 3" x1="269.7" y1="409" x2="292.2" y2="409" gradientTransform="translate(-234.2 -332.3)" gradientUnits="userSpaceOnUse">
      <stop offset="0" stop-color="#c44100"/>
      <stop offset="1" stop-color="#c84300" stop-opacity="0"/>
    </linearGradient>
    <linearGradient id="Dégradé_sans_nom_31" data-name="Dégradé sans nom 3" y1="407.9" y2="407.9" xlink:href="#Dégradé_sans_nom_3"/>
    <linearGradient id="Dégradé_sans_nom_56" data-name="Dégradé sans nom 5" x1="318.4" y1="414.5" x2="238.3" y2="414.5" xlink:href="#Dégradé_sans_nom_5"/>
    <linearGradient id="Dégradé_sans_nom_32" data-name="Dégradé sans nom 3" y1="414.5" y2="414.5" xlink:href="#Dégradé_sans_nom_3"/>
    <linearGradient id="Dégradé_sans_nom_57" data-name="Dégradé sans nom 5" x1="386.1" y1="358.3" x2="261.2" y2="395.4" xlink:href="#Dégradé_sans_nom_5"/>
    <linearGradient id="Dégradé_sans_nom_58" data-name="Dégradé sans nom 5" y1="389.1" y2="389.1" xlink:href="#Dégradé_sans_nom_5"/>
    <linearGradient id="Dégradé_sans_nom_59" data-name="Dégradé sans nom 5" x1="386" y1="358.1" x2="261.2" y2="395.1" xlink:href="#Dégradé_sans_nom_5"/>
    <linearGradient id="Dégradé_sans_nom_510" data-name="Dégradé sans nom 5" y1="395.4" y2="395.4" xlink:href="#Dégradé_sans_nom_5"/>
    <linearGradient id="Dégradé_sans_nom_511" data-name="Dégradé sans nom 5" x1="389.8" y1="370.9" x2="265" y2="408" xlink:href="#Dégradé_sans_nom_5"/>
    <linearGradient id="Dégradé_sans_nom_512" data-name="Dégradé sans nom 5" x1="318.4" y1="401.6" x2="238.3" y2="401.6" xlink:href="#Dégradé_sans_nom_5"/>
    <linearGradient id="Dégradé_sans_nom_513" data-name="Dégradé sans nom 5" x1="388.5" y1="366.5" x2="263.6" y2="403.5" xlink:href="#Dégradé_sans_nom_5"/>
    <linearGradient id="Dégradé_sans_nom_514" data-name="Dégradé sans nom 5" y1="395.4" y2="395.4" xlink:href="#Dégradé_sans_nom_5"/>
    <linearGradient id="Dégradé_sans_nom_515" data-name="Dégradé sans nom 5" x1="318.4" y1="395.4" x2="238.3" y2="395.4" xlink:href="#Dégradé_sans_nom_5"/>
    <linearGradient id="Dégradé_sans_nom_516" data-name="Dégradé sans nom 5" x1="388.9" y1="367.9" x2="264.1" y2="404.9" xlink:href="#Dégradé_sans_nom_5"/>
    <linearGradient id="Dégradé_sans_nom_517" data-name="Dégradé sans nom 5" x1="355" y1="370.4" x2="224.6" y2="370.4" xlink:href="#Dégradé_sans_nom_5"/>
    <linearGradient id="Dégradé_sans_nom_518" data-name="Dégradé sans nom 5" y1="382.2" y2="382.2" xlink:href="#Dégradé_sans_nom_5"/>
    <linearGradient id="Dégradé_sans_nom_519" data-name="Dégradé sans nom 5" x1="355" y1="382.2" x2="224.6" y2="382.2" xlink:href="#Dégradé_sans_nom_5"/>
    <linearGradient id="Dégradé_sans_nom_520" data-name="Dégradé sans nom 5" y1="382.2" y2="382.2" xlink:href="#Dégradé_sans_nom_5"/>
    <linearGradient id="Dégradé_sans_nom_521" data-name="Dégradé sans nom 5" x1="355" y1="382.2" x2="224.6" y2="382.2" xlink:href="#Dégradé_sans_nom_5"/>
    <linearGradient id="Dégradé_sans_nom_522" data-name="Dégradé sans nom 5" x1="386.7" y1="360.2" x2="261.8" y2="397.2" xlink:href="#Dégradé_sans_nom_5"/>
    <linearGradient id="Dégradé_sans_nom_523" data-name="Dégradé sans nom 5" x1="355" y1="381.5" x2="224.6" y2="381.5" xlink:href="#Dégradé_sans_nom_5"/>
    <linearGradient id="Dégradé_sans_nom_524" data-name="Dégradé sans nom 5" y1="382.2" y2="382.2" xlink:href="#Dégradé_sans_nom_5"/>
    <linearGradient id="Dégradé_sans_nom_525" data-name="Dégradé sans nom 5" x1="386.1" y1="358.3" x2="261.2" y2="395.3" xlink:href="#Dégradé_sans_nom_5"/>
    <linearGradient id="Dégradé_sans_nom_526" data-name="Dégradé sans nom 5" x1="355" y1="382.2" x2="224.6" y2="382.2" xlink:href="#Dégradé_sans_nom_5"/>
    <linearGradient id="Dégradé_sans_nom_527" data-name="Dégradé sans nom 5" y1="382.9" y2="382.9" xlink:href="#Dégradé_sans_nom_5"/>
    <linearGradient id="Dégradé_sans_nom_528" data-name="Dégradé sans nom 5" x1="318.4" y1="382.9" x2="238.3" y2="382.9" xlink:href="#Dégradé_sans_nom_5"/>
    <linearGradient id="Dégradé_sans_nom_529" data-name="Dégradé sans nom 5" x1="386.2" y1="358.7" x2="261.4" y2="395.8" xlink:href="#Dégradé_sans_nom_5"/>
    <linearGradient id="Dégradé_sans_nom_530" data-name="Dégradé sans nom 5" x1="355" y1="382.9" x2="224.6" y2="382.9" xlink:href="#Dégradé_sans_nom_5"/>
  </defs>
  <path class="st22" d="M0,0v126.6h126.6V0H0ZM83,75.6h-16.6s0,0,0,0c0,0-.5.8-1.2,2.1l-7.3,13.3c-3.7,6.8-10.8,11-18.6,11h-21.4s8.3-15.3,14.4-26.5c0,0,0,0,0,0h0c2.6-4.8,6.2-11.4,6.2-11.4,0-.1.2-.3.3-.4.5-.9,1-1.9,1.5-2.8,2.8-5.2,7.8-8.8,13.5-10,1.3-.3,2.7-.4,4-.4-7.3,0-14-4-17.5-10.4l-8-14.6h50.5c13.9,0,25.1,11.2,25.1,25s-11.2,25-25.1,25Z"/>
  <path class="st22" d="M58,50.6h0c-1.4,0-2.7.1-4,.4,1.3-.3,2.7-.4,4-.4h.1Z"/>
  <path class="st0" d="M58,50.6h0c-1.4,0-2.7.1-4,.4,1.3-.3,2.7-.4,4-.4h.1Z"/>
  <path class="st22" d="M66.4,75.6h0s16.6,0,16.6,0c13.9,0,25.1-11.2,25.1-25h-28.1l-13.6,25Z"/>
  <path class="st23" d="M66.4,75.6h0s16.6,0,16.6,0c13.9,0,25.1-11.2,25.1-25h-28.1l-13.6,25Z"/>
  <path class="st22" d="M32.4,75.6h0s3.1-5.6,6.4-11.8c0,.1-.2.3-.3.4,0,0-3.6,6.6-6.2,11.4h34s-34,0-34,0h0Z"/>
  <path class="st26" d="M32.4,75.6h0s3.1-5.6,6.4-11.8c0,.1-.2.3-.3.4,0,0-3.6,6.6-6.2,11.4h34s-34,0-34,0h0Z"/>
  <path class="st22" d="M32.4,75.6c-6.1,11.1-14.4,26.5-14.4,26.5h21.4c7.8,0,14.9-4.2,18.6-11l7.3-13.3c-1.6,2.9-4.4,8.1-6.1,11.1-8.3-11.7-21.8-13.1-26.8-13.2Z"/>
  <path class="st24" d="M32.4,75.6c-6.1,11.1-14.4,26.5-14.4,26.5h21.4c7.8,0,14.9-4.2,18.6-11l7.3-13.3c-1.6,2.9-4.4,8.1-6.1,11.1-8.3-11.7-21.8-13.1-26.8-13.2Z"/>
  <rect class="st22" x="49.4" y="58.6" width="0" height="34" transform="translate(-40.6 82.9) rotate(-61.5)"/>
  <rect class="st28" x="49.4" y="58.6" width="0" height="34" transform="translate(-40.6 82.9) rotate(-61.5)"/>
  <rect class="st25" x="49.4" y="58.6" width="0" height="34" transform="translate(-40.6 82.9) rotate(-61.5)"/>
  <path class="st22" d="M66.4,75.6h0l-1.2,2.1c.7-1.3,1.2-2.1,1.2-2.1Z"/>
  <path class="st34" d="M66.4,75.6h0l-1.2,2.1c.7-1.3,1.2-2.1,1.2-2.1Z"/>
  <path class="st22" d="M32.3,75.6s0,0,0,0c0,0,0,0,0,0h0Z"/>
  <path class="st32" d="M32.3,75.6s0,0,0,0c0,0,0,0,0,0h0Z"/>
  <path class="st22" d="M32.4,75.6c5,0,18.5,1.5,26.8,13.2,1.6-3,4.5-8.2,6.1-11.1l1.2-2.1h-34s0,0,0,0Z"/>
  <path class="st30" d="M32.4,75.6c5,0,18.5,1.5,26.8,13.2,1.6-3,4.5-8.2,6.1-11.1l1.2-2.1h-34s0,0,0,0Z"/>
  <path class="st33" d="M32.4,75.6c5,0,18.5,1.5,26.8,13.2,1.6-3,4.5-8.2,6.1-11.1l1.2-2.1h-34s0,0,0,0Z"/>
  <path class="st22" d="M40.4,60.9c2.8-5.2,7.8-8.8,13.5-10-5.7,1.2-10.7,4.8-13.5,10-.5.9-1,1.9-1.5,2.8.1-.2.3-.4.4-.6l1.2-2.2Z"/>
  <path class="st29" d="M40.4,60.9c2.8-5.2,7.8-8.8,13.5-10-5.7,1.2-10.7,4.8-13.5,10-.5.9-1,1.9-1.5,2.8.1-.2.3-.4.4-.6l1.2-2.2Z"/>
  <path class="st22" d="M40.4,60.9l-1.2,2.2c4.7-7.7,13.1-12.5,22.2-12.5h-3.5c-1.4,0-2.7.1-4,.4-5.7,1.2-10.6,4.8-13.5,10Z"/>
  <path class="st31" d="M40.4,60.9l-1.2,2.2c4.7-7.7,13.1-12.5,22.2-12.5h-3.5c-1.4,0-2.7.1-4,.4-5.7,1.2-10.6,4.8-13.5,10Z"/>
  <path class="st27" d="M40.4,60.9l-1.2,2.2c4.7-7.7,13.1-12.5,22.2-12.5h-3.5c-1.4,0-2.7.1-4,.4-5.7,1.2-10.6,4.8-13.5,10Z"/>
  <rect class="st22" x="73.2" y="48.8" width="0" height="28.5"/>
  <rect class="st7" x="73.2" y="48.8" width="0" height="28.5"/>
  <rect class="st6" x="73.2" y="48.8" width="0" height="28.5"/>
  <path class="st22" d="M32.4,75.6l6.8-12.5c-.1.2-.3.4-.4.6-3.4,6.2-6.4,11.8-6.4,11.8h0Z"/>
  <path class="st5" d="M32.4,75.6l6.8-12.5c-.1.2-.3.4-.4.6-3.4,6.2-6.4,11.8-6.4,11.8h0Z"/>
  <path class="st3" d="M32.4,75.6l6.8-12.5c-.1.2-.3.4-.4.6-3.4,6.2-6.4,11.8-6.4,11.8h0Z"/>
  <path class="st22" d="M61.4,50.6c-9.1,0-17.5,4.8-22.2,12.5l-6.8,12.5h34l13.6-25h-18.6Z"/>
  <path class="st2" d="M61.4,50.6c-9.1,0-17.5,4.8-22.2,12.5l-6.8,12.5h34l13.6-25h-18.6Z"/>
  <path class="st10" d="M61.4,50.6c-9.1,0-17.5,4.8-22.2,12.5l-6.8,12.5h34l13.6-25h-18.6Z"/>
  <path class="st8" d="M61.4,50.6c-9.1,0-17.5,4.8-22.2,12.5l-6.8,12.5h34l13.6-25h-18.6Z"/>
  <path class="st22" d="M83,25.6h-50.5l8,14.6c3.5,6.4,10.2,10.4,17.5,10.4,7.5-.8,14.8-1.2,22-1.3h.8s0,0,0,0c9.4-.1,18.5.3,27.4,1.3,0-13.8-11.2-25-25.1-25Z"/>
  <path class="st4" d="M83,25.6h-50.5l8,14.6c3.5,6.4,10.2,10.4,17.5,10.4,7.5-.8,14.8-1.2,22-1.3h.8s0,0,0,0c9.4-.1,18.5.3,27.4,1.3,0-13.8-11.2-25-25.1-25Z"/>
  <path class="st22" d="M80.7,49.2l-.7,1.3h28.1c-8.9-1-18-1.4-27.4-1.3Z"/>
  <path class="st1" d="M80.7,49.2l-.7,1.3h28.1c-8.9-1-18-1.4-27.4-1.3Z"/>
  <path class="st9" d="M80.7,49.2l-.7,1.3h28.1c-8.9-1-18-1.4-27.4-1.3Z"/>
  <path class="st22" d="M80,49.2c-7.2.1-14.5.5-22,1.3h0l22-1.3Z"/>
  <path class="st20" d="M80,49.2c-7.2.1-14.5.5-22,1.3h0l22-1.3Z"/>
  <path class="st15" d="M80,49.2c-7.2.1-14.5.5-22,1.3h0l22-1.3Z"/>
  <path class="st22" d="M80.8,49.2h-.8c.3,0,.5,0,.8,0h0Z"/>
  <path class="st11" d="M80.8,49.2h-.8c.3,0,.5,0,.8,0h0Z"/>
  <path class="st14" d="M80.8,49.2h-.8c.3,0,.5,0,.8,0h0Z"/>
  <path class="st22" d="M61.4,50.6c0,0,.1,0,.2,0h18.4,0s0,0,0,0l.7-1.3c-.3,0-.5,0-.8,0l-22,1.3h3.4Z"/>
  <path class="st13" d="M61.4,50.6c0,0,.1,0,.2,0h18.4,0s0,0,0,0l.7-1.3c-.3,0-.5,0-.8,0l-22,1.3h3.4Z"/>
  <path class="st16" d="M61.4,50.6c0,0,.1,0,.2,0h18.4,0s0,0,0,0l.7-1.3c-.3,0-.5,0-.8,0l-22,1.3h3.4Z"/>
  <path class="st19" d="M61.4,50.6c0,0,.1,0,.2,0h18.4,0s0,0,0,0l.7-1.3c-.3,0-.5,0-.8,0l-22,1.3h3.4Z"/>
  <path class="st22" d="M80,50.6h-18.4c0,0-.1,0-.2,0h18.6Z"/>
  <path class="st12" d="M80,50.6h-18.4c0,0-.1,0-.2,0h18.6Z"/>
  <path class="st17" d="M80,50.6h-18.4c0,0-.1,0-.2,0h18.6Z"/>
  <path class="st18" d="M80,50.6h-18.4c0,0-.1,0-.2,0h18.6Z"/>
  <path class="st21" d="M80,50.6h-18.4c0,0-.1,0-.2,0h18.6Z"/>
</svg>