<svg width="29" height="21" viewBox="0 0 29 21" fill="none" xmlns="http://www.w3.org/2000/svg">
<path fill-rule="evenodd" clip-rule="evenodd" d="M21.1863 20.7416C21.1863 20.7416 20.322 19.7092 19.6017 18.8208C22.7469 17.9325 23.9473 15.9877 23.9473 15.9877C22.9629 16.636 22.0266 17.0922 21.1863 17.4043C19.9857 17.9084 18.8333 18.2206 17.7049 18.4367C15.4 18.8689 13.2872 18.7488 11.4865 18.4127C10.1179 18.1486 8.94145 17.7885 7.95706 17.3802C7.40484 17.1642 6.80462 16.9001 6.2044 16.5639C6.13238 16.5159 6.06031 16.4919 5.98835 16.4439C5.94036 16.4199 5.91633 16.3959 5.89231 16.3959C5.46009 16.1557 5.22002 15.9877 5.22002 15.9877C5.22002 15.9877 6.37252 17.8844 9.42171 18.7968C8.70137 19.7092 7.81308 20.7656 7.81308 20.7656C2.50705 20.5975 0.490234 17.1402 0.490234 17.1402C0.490234 9.4812 3.94756 3.26285 3.94756 3.26285C7.40489 0.693866 10.6702 0.765883 10.6702 0.765883L10.9103 1.05395C6.58868 2.27847 4.6198 4.17522 4.6198 4.17522C4.6198 4.17522 5.14806 3.88709 6.0364 3.50293C8.60544 2.37445 10.6462 2.08639 11.4865 1.99034C11.6306 1.96632 11.7507 1.9423 11.8947 1.9423C13.3592 1.75021 15.0159 1.70222 16.7446 1.89425C19.0255 2.15835 21.4744 2.83064 23.9714 4.17516C23.9714 4.17516 22.0746 2.3744 17.993 1.14994L18.3292 0.765828C18.3292 0.765828 21.6184 0.693756 25.0518 3.2628C25.0518 3.2628 28.5092 9.4812 28.5092 17.1401C28.5092 17.1161 26.4924 20.5735 21.1863 20.7415L21.1863 20.7416ZM18.7853 9.62523C17.4169 9.62523 16.3364 10.8017 16.3364 12.2663C16.3364 13.7309 17.4408 14.9073 18.7853 14.9073C20.1538 14.9073 21.2343 13.7309 21.2343 12.2663C21.2343 10.8017 20.1299 9.62523 18.7853 9.62523ZM10.022 9.62523C8.65343 9.62523 7.57301 10.8017 7.57301 12.2663C7.57301 13.7309 8.67746 14.9073 10.022 14.9073C11.3905 14.9073 12.4709 13.7309 12.4709 12.2663C12.4949 10.8018 11.3905 9.62523 10.022 9.62523Z" fill="white"/>
</svg>
