<svg width="23" height="21" viewBox="0 0 23 21" fill="none" xmlns="http://www.w3.org/2000/svg">
<g clip-path="url(#clip0_348_7093)">
<path d="M18.6971 0.765625H22.0898L14.6777 9.23755L23.3977 20.7656H16.5698L11.2223 13.7737L5.10334 20.7656H1.70835L9.63641 11.7041L1.27148 0.765625H8.27232L13.1062 7.1563L18.6971 0.765625ZM17.5063 18.7348H19.3864L7.25088 2.68987H5.23359L17.5063 18.7348Z" fill="black"/>
<path d="M18.6971 0.765625H22.0898L14.6777 9.23755L23.3977 20.7656H16.5698L11.2223 13.7737L5.10334 20.7656H1.70835L9.63641 11.7041L1.27148 0.765625H8.27232L13.1062 7.1563L18.6971 0.765625ZM17.5063 18.7348H19.3864L7.25088 2.68987H5.23359L17.5063 18.7348Z" fill="white"/>
</g>
<defs>
<clipPath id="clip0_348_7093">
<rect width="22.1262" height="20" fill="white" transform="translate(0.4375 0.765625)"/>
</clipPath>
</defs>
</svg>
