<?xml version="1.0" encoding="utf-8"?>
<!-- Generator: Adobe Illustrator 28.3.0, SVG Export Plug-In . SVG Version: 6.00 Build 0)  -->
<svg version="1.1" id="Calque_1" xmlns="http://www.w3.org/2000/svg" xmlns:xlink="http://www.w3.org/1999/xlink" x="0px" y="0px"
	 viewBox="0 0 400 400" style="enable-background:new 0 0 400 400;" xml:space="preserve">
<style type="text/css">
	.st0{fill:#1DA2B3;}
</style>
<g>
	<path class="st0" d="M314.8,234c-0.4-3-1.5-5.8-3.4-8.1c-2.3-2.7-4.7-5.4-7.1-8c-3.6-4-7.2-8-10.9-12c-3.6-4-7.2-8-10.8-12
		c-3.5-3.9-7.1-7.8-10.6-11.8c-5.4-6-10.7-11.9-16.1-17.9c-3.5-3.9-7.1-7.8-10.6-11.8c-3.4-3.8-7.7-5.8-12.8-5.8
		c-12.4,0-24.8,0-37.3,0c-0.4,0-0.7,0-1.3,0c21.6,24,43,47.8,64.6,71.8c-21.6,0-43,0-64.5,0c1.2,1.4,2.3,2.6,3.4,3.8
		c3.3,3.6,6.6,7.2,9.8,10.8c3.4,3.7,6.8,7.5,10.1,11.2c2.9,3.1,5.7,6.2,8.5,9.4c0.5,0.6,0.9,0.7,1.6,0.7c9.9,0,19.7,0,29.6,0
		c0.4,0,0.7,0,1.3,0c-1.6,1.8-3,3.4-4.5,5c-3.9,4.3-7.7,8.6-11.6,12.9c-5,5.6-10,11.1-15,16.7c-4.4,4.9-8.9,9.9-13.3,14.8
		c-4.3,4.7-8.6,9.5-12.8,14.2c-1.3,1.4-2.1,2.9-1.5,4.9c0.4,1.6,1.5,2.5,2.9,3.1c10.9,0,21.8,0,32.7,0c1.2-0.4,2.4-0.7,3.6-1.1
		c2.7-1,4.8-2.8,6.7-5c2-2.3,4.1-4.6,6.1-6.9c3.8-4.2,7.6-8.5,11.5-12.7c3.5-3.9,7-7.8,10.5-11.7c4.8-5.4,9.6-10.7,14.5-16.1
		c3.5-3.9,7-7.7,10.5-11.6c3.9-4.4,7.9-8.7,11.8-13.1c2.3-2.6,3.6-5.6,4.1-9.1c0-0.1,0.1-0.2,0.2-0.4c0-1.3,0-2.6,0-3.9
		C315,234.3,314.9,234.1,314.8,234z"/>
	<path class="st0" d="M206.2,254.4c-21.6-24-43-47.8-64.6-71.8c21.6,0,42.9,0,64.4,0c-0.2-0.3-0.4-0.6-0.6-0.8c-1.8-2-3.6-4-5.4-5.9
		c-4.2-4.7-8.5-9.4-12.8-14c-4.4-4.8-8.8-9.7-13.2-14.5c-0.5-0.5-0.9-0.7-1.6-0.7c-9.9,0-19.7,0-29.6,0c-0.3,0-0.6,0-1.2,0
		c0.3-0.4,0.5-0.7,0.7-0.9c1.1-1.3,2.3-2.6,3.5-3.8c2.6-2.9,5.2-5.7,7.8-8.6c4-4.5,8-8.9,12-13.4c3.2-3.5,6.4-7,9.5-10.5
		c4.6-5.1,9.2-10.3,13.8-15.4c3.5-3.9,7-7.7,10.5-11.6c1.2-1.4,1.4-2.9,0.8-4.6c-0.7-1.8-2.1-2.7-4.1-2.7c-9.8,0-19.6,0-29.4,0
		c-3.4,0-6.5,1-9.1,3.1c-2.1,1.7-3.9,3.8-5.7,5.8c-5.1,5.6-10.1,11.2-15.2,16.8c-3.8,4.3-7.7,8.5-11.5,12.8c-4.5,5-9,9.9-13.4,14.9
		c-3.1,3.4-6.2,6.9-9.3,10.3c-4.1,4.6-8.2,9.2-12.3,13.7c-2.8,3.1-4.5,6.6-4.8,10.7c-0.3,4.6,0.8,8.8,3.8,12.3
		c4.7,5.4,9.6,10.8,14.4,16.1c3.5,3.9,7,7.8,10.5,11.7c5.3,5.9,10.6,11.8,15.9,17.7c3.6,4,7.2,8,10.8,12c2.7,3,5.4,6,8.1,9
		c2,2.2,3.9,4.5,5.9,6.7c3.3,3.6,7.3,5.7,12.2,5.7c12.7,0.1,25.3,0,38,0C205.4,254.4,205.7,254.4,206.2,254.4z"/>
</g>
</svg>
