<?xml version="1.0" encoding="utf-8"?>
<!-- Generator: Adobe Illustrator 28.3.0, SVG Export Plug-In . SVG Version: 6.00 Build 0)  -->
<svg version="1.1" id="Calque_1" xmlns="http://www.w3.org/2000/svg" xmlns:xlink="http://www.w3.org/1999/xlink" x="0px" y="0px"
	 viewBox="0 0 600 600" style="enable-background:new 0 0 600 600;" xml:space="preserve">
<style type="text/css">
	.st0{fill:#00F0FF;}
</style>
<rect class="st0" width="600" height="600"/>
<g>
	<path d="M342.1,138.3c-38.9,38.6-77.7,77-116.6,115.6c30.2,30.4,60.4,60.8,90.7,91.3c-0.6,0-0.9,0.1-1.3,0.1c-25.8,0-51.6,0-77.4,0
		c-1,0-1.5-0.5-2.1-1.1c-24.9-24.8-49.9-49.6-74.8-74.4c-2-2-4-4-6-6c-5.8-5.8-5.8-14.1-0.1-19.9c34.8-35,69.6-69.9,104.3-104.9
		c0.6-0.6,1.1-0.8,1.9-0.8c26.8,0,53.6,0,80.3,0C341.4,138.3,341.8,138.3,342.1,138.3z"/>
	<path d="M375.1,345.4c-30.2-30.4-60.4-60.8-90.7-91.3c0.6,0,0.9-0.1,1.2-0.1c25.8,0,51.7,0,77.5,0c0.6,0,1.3,0.3,1.7,0.7
		c27,26.8,54,53.6,81,80.5c6,6,6,14.3,0.1,20.3C411.3,390.3,376.6,425.1,342,460c-0.7,0.7-1.4,1-2.4,1c-26.6,0-53.1,0-79.7,0
		c-0.5,0-0.9,0-1.4,0C297.4,422.4,336.2,384,375.1,345.4z"/>
</g>
</svg>
