<?xml version="1.0" encoding="UTF-8"?>
<svg id="Calque_1" xmlns="http://www.w3.org/2000/svg" version="1.1" viewBox="0 0 126.6 126.6">
  <!-- Generator: Adobe Illustrator 29.5.1, SVG Export Plug-In . SVG Version: 2.1.0 Build 141)  -->
  <defs>
    <style>
      .st0 {
        fill: none;
      }

      .st1 {
        fill: #f5a400;
      }

      .st2 {
        fill: #fff;
      }

      .st3 {
        fill: #15192a;
      }
    </style>
  </defs>
  <rect class="st3" width="126.6" height="126.6"/>
  <g>
    <path class="st0" d="M26.6,62.4c.3-1.6-.9-3.7-2.6-3.7h-6v5.9h6.4c.8,0,2-1.3,2.2-2.1Z"/>
    <path class="st0" d="M25.7,69.8c-.2-.1-1-.5-1.1-.5h-6.6v6.3h6.4c0,0,1.1-.5,1.2-.5,1.8-1.1,1.9-4.1,0-5.2Z"/>
    <path class="st0" d="M72.9,63.6c1.1-1.3.7-3.6-.8-4.5-.1,0-1.1-.4-1.2-.4h-6v5.9h6.4c.1,0,1.4-.8,1.6-1Z"/>
    <path class="st0" d="M72.6,69.8c-.1,0-1-.5-1.1-.5h-6.6v6.3h6.4c.2,0,1.5-.7,1.7-.9,1.3-1.2,1.1-3.9-.4-4.9Z"/>
    <polygon class="st2" points="45.7 64.4 40.6 54.2 34.9 54.2 43 69.6 43 80.1 48.1 80.1 48.2 69.4 56 54.2 50.6 54.2 45.7 64.4"/>
    <polygon class="st2" points="94.6 54.2 94.6 58.7 101.5 58.7 101.5 80.1 106.8 80.1 106.8 58.7 113.7 58.7 113.7 54.2 94.6 54.2"/>
    <rect class="st1" x="84.8" y="46.5" width="5.1" height="25.9"/>
    <path class="st2" d="M75.5,66.8c4.9-2.9,3.9-10.1-1.3-12-.6-.2-2.3-.6-2.9-.6h-11.5v25.9h12.6l2.4-.7c5.3-2,6-9.9.8-12.6ZM64.9,58.7h6c0,0,1,.3,1.2.4,1.5.9,1.9,3.1.8,4.5-.2.2-1.4,1-1.6,1h-6.4v-5.9ZM73,74.7c-.2.2-1.5.9-1.7.9h-6.4v-6.3h6.6c0,0,.9.4,1.1.5,1.5,1,1.7,3.7.4,4.9Z"/>
    <path class="st2" d="M28.6,66.9c5.4-3.6,3.6-11.3-2.7-12.5-4-.8-8.9,0-13.1-.2v25.9h12.6l2.4-.7c5.3-1.9,6.1-10.1.8-12.5ZM18,58.7h6c1.7,0,2.9,2.2,2.6,3.7-.2.8-1.4,2.1-2.2,2.1h-6.4v-5.9ZM25.6,75c-.2,0-1.2.5-1.2.5h-6.4v-6.3h6.6c0,0,.9.4,1.1.5,1.8,1.2,1.8,4.1,0,5.2Z"/>
  </g>
</svg>