<?xml version="1.0" encoding="UTF-8"?>
<svg id="Calque_2" data-name="Calque 2" xmlns="http://www.w3.org/2000/svg" version="1.1" viewBox="0 0 1341 411.1">
  <defs>
    <style>
      .cls-1 {
        fill: #000;
      }

      .cls-1, .cls-2 {
        stroke-width: 0px;
      }

      .cls-2 {
        fill: #fff;
      }
    </style>
  </defs>
  <g id="Calque_1-2" data-name="Calque 1-2">
    <g>
      <path class="cls-2" d="M81.4,411.1c-3.3,0-6.5,0-9.7-.1-6.7,0-13.5-.7-20.1-1.8-6.2-1.1-12.2-3-17.8-5.9-5.6-2.8-10.6-6.5-15-10.9-4.4-4.4-8.2-9.4-11-15-2.8-5.6-4.8-11.6-5.8-17.8-1.1-6.7-1.7-13.4-1.8-20.1,0-2.3-.2-9.8-.2-9.8V81.4s.1-7.4.2-9.6c0-6.7.7-13.5,1.8-20.1,1-6.2,3-12.2,5.8-17.9,2.8-5.6,6.5-10.6,10.9-15,4.4-4.4,9.5-8.1,15.1-11,5.6-2.8,11.6-4.8,17.8-5.8,6.7-1.1,13.4-1.7,20.2-1.8h9.7C81.4,0,1259.6,0,1259.6,0h9.8c6.7.2,13.4.8,20,1.9,6.2,1.1,12.3,3,18,5.9,11.2,5.8,20.2,14.8,26,26,2.8,5.6,4.7,11.6,5.8,17.7,1.1,6.7,1.7,13.5,1.9,20.3,0,3,0,6.3,0,9.6,0,4,0,7.9,0,11.7v224.9c0,3.9,0,7.7,0,11.6,0,3.5,0,6.7,0,10-.1,6.7-.7,13.3-1.8,19.9-1,6.2-3,12.3-5.8,18-2.8,5.5-6.5,10.5-10.9,14.9-4.4,4.5-9.5,8.2-15,11-5.7,2.9-11.7,4.9-17.9,5.9-6.6,1.1-13.4,1.7-20.1,1.8-3.2,0-6.4.1-9.7.1h-11.7s-1166.6,0-1166.6,0h0Z"/>
      <g>
        <g id="_Group_" data-name=" Group ">
          <g id="_Group_2" data-name=" Group 2">
            <g id="_Group_3" data-name=" Group 3">
              <path id="_Path_" data-name=" Path " class="cls-1" d="M256.9,208.8c.2-18.2,9.8-35.1,25.3-44.6-9.8-14.1-25.7-22.7-42.9-23.2-18.1-1.9-35.6,10.8-44.7,10.8s-23.5-10.6-38.8-10.3c-20.1.6-38.3,11.8-48.1,29.3-20.8,36-5.3,88.9,14.6,118,10,14.2,21.6,30.2,36.8,29.6,14.9-.6,20.5-9.5,38.5-9.5s23.1,9.5,38.6,9.1c16-.3,26.1-14.3,35.7-28.7,7.2-10.1,12.7-21.4,16.3-33.2-19-8-31.4-26.6-31.4-47.3h0Z"/>
              <path id="_Path_2" data-name=" Path 2" class="cls-1" d="M227.5,121.8c8.7-10.5,13-23.9,12-37.5-13.3,1.4-25.6,7.8-34.5,17.8-8.7,9.9-13.1,22.9-12.3,36.1,13.5.1,26.3-5.9,34.8-16.4h0Z"/>
            </g>
          </g>
        </g>
        <g id="_Group_4" data-name=" Group 4">
          <g>
            <path class="cls-1" d="M373.9,148.6v-55.1h-20.2v-9.1h50.3v9.1h-20.1v55.1h-10Z"/>
            <path class="cls-1" d="M450.3,135.6c-2.7,9.1-11.5,15-21,14-12.1.3-22.2-9.3-22.6-21.4,0-1.2,0-2.4.2-3.6-1.6-12.2,6.9-23.4,19.2-25.1,1-.1,2.1-.2,3.1-.2,13.5,0,21.6,9.2,21.6,24.4v3.3h-34.2v.5c-.6,7,4.6,13.2,11.7,13.8.4,0,.8,0,1.2,0,4.7.6,9.2-1.8,11.5-5.9h9.2ZM416.7,119.9h24.5c.5-6.4-4.4-12-10.8-12.5-.4,0-.8,0-1.1,0-6.8,0-12.5,5.4-12.5,12.2v.3h0ZM423.5,92.1l11.2-15.3h11.2l-12.5,15.3h-9.9Z"/>
            <path class="cls-1" d="M464.1,81.3h9.5v67.3h-9.5v-67.3Z"/>
            <path class="cls-1" d="M530.3,135.6c-2.7,9.1-11.5,15-21,14-12.1.3-22.2-9.3-22.6-21.4,0-1.2,0-2.4.2-3.6-1.6-12.2,6.9-23.4,19.2-25.1,1-.1,2.1-.2,3.1-.2,13.5,0,21.6,9.2,21.6,24.4v3.3h-34.2v.5c-.6,7,4.6,13.2,11.7,13.8.4,0,.8,0,1.2,0,4.7.6,9.2-1.8,11.5-5.9h9.2ZM496.7,119.9h24.5c.5-6.4-4.3-12-10.8-12.5-.4,0-.8,0-1.1,0-6.8,0-12.5,5.4-12.5,12.2v.3h0ZM503.5,92.1l11.2-15.3h11.2l-12.5,15.3h-9.9Z"/>
            <path class="cls-1" d="M575.4,116c-1.3-5.2-6.1-8.7-11.4-8.2-8,0-12.9,6.1-12.9,16.4s4.9,16.8,12.9,16.8c5.3.6,10.2-2.8,11.4-8h9.3c-1.3,10.2-10.5,17.5-20.7,16.5-12.3.4-22.5-9.2-22.9-21.5,0-1.3,0-2.5.2-3.8-1.6-12.1,6.9-23.2,19-24.8,1.2-.2,2.5-.2,3.7-.2,10.3-.9,19.5,6.5,20.7,16.8h-9.3,0Z"/>
            <path class="cls-1" d="M597.3,81.3h9.5v26.7h.8c2.6-5.7,8.5-9.2,14.8-8.7,8.8-.5,16.3,6.3,16.8,15.1,0,1,0,2-.1,3v31.2h-9.6v-28.9c0-7.7-3.6-11.7-10.3-11.7-6.2-.5-11.7,4.1-12.2,10.3,0,.6,0,1.3,0,1.9v28.3h-9.5v-67.3h0Z"/>
            <path class="cls-1" d="M651,134.9c0-8.7,6.5-13.7,18-14.4l13.1-.8v-4.2c0-5.1-3.4-8-9.9-8s-9,2-10.1,5.4h-9.2c1-8.3,8.8-13.7,19.8-13.7s19,6,19,16.3v33.1h-9.2v-6.8h-.8c-3.1,5-8.7,7.9-14.5,7.6-8,.8-15.2-5-16.1-13,0-.5,0-1,0-1.5h0ZM682.1,130.8v-4.1l-11.8.8c-6.7.4-9.7,2.7-9.7,7s3.8,6.9,9,6.9c6.3.6,11.9-3.9,12.5-10.2,0-.1,0-.2,0-.4h0Z"/>
            <path class="cls-1" d="M706.6,100.2h9.2v7.4h.7c2.1-5.3,7.4-8.6,13.1-8.2,1.4,0,2.9.1,4.3.4v9.4c-1.8-.4-3.5-.6-5.3-.6-6.2-.6-11.8,4-12.3,10.3,0,.4,0,.7,0,1.1v28.6h-9.5v-48.4h0Z"/>
            <path class="cls-1" d="M742.6,153.5h9.8c.8,3.5,4.8,5.8,11.3,5.8s12.7-3.8,12.7-10.2v-9.3h-.7c-3,5.3-8.8,8.4-14.9,8.1-12.3,0-20-9.6-20-24s7.7-24.5,20.1-24.5c6.3-.2,12.1,3.1,15.2,8.5h.8v-7.7h9.2v48.8c0,11.1-8.7,18.1-22.4,18.1s-19.9-5.4-20.9-13.6h0ZM776.5,123.8c0-9.6-5-15.8-13.1-15.8s-12.8,6.2-12.8,15.8,4.6,15.8,12.8,15.8,13.1-6.1,13.1-15.8h0Z"/>
            <path class="cls-1" d="M842,135.6c-2.7,9.1-11.5,15-21,14-12.1.3-22.2-9.3-22.6-21.4,0-1.2,0-2.4.2-3.6-1.6-12.2,6.9-23.4,19.2-25.1,1-.1,2.1-.2,3.2-.2,13.5,0,21.6,9.2,21.6,24.4v3.3h-34.2v.5c-.6,7,4.6,13.2,11.7,13.8.4,0,.8,0,1.2,0,4.7.6,9.2-1.8,11.5-5.9h9.2ZM808.4,119.9h24.5c.5-6.4-4.3-12-10.8-12.5-.4,0-.8,0-1.1,0-6.8,0-12.5,5.4-12.5,12.2v.3h0Z"/>
            <path class="cls-1" d="M855.4,100.2h9.2v7.4h.7c2.1-5.3,7.4-8.6,13.1-8.2,1.4,0,2.9.1,4.3.4v9.4c-1.8-.4-3.5-.6-5.3-.6-6.2-.6-11.8,4-12.3,10.3,0,.4,0,.7,0,1.1v28.6h-9.5v-48.4h0Z"/>
            <path class="cls-1" d="M917.1,124.4c0-15.3,7.9-25,20.1-25,6.2-.3,12,3,14.8,8.5h.7v-26.6h9.5v67.3h-9.2v-7.6h-.8c-3.1,5.4-9,8.7-15.2,8.4-12.3,0-20.1-9.7-20.1-25h0ZM927,124.4c0,10.3,4.8,16.4,12.9,16.4s13-6.3,13-16.4-5-16.4-13-16.4-12.9,6.2-12.9,16.4h0Z"/>
            <path class="cls-1" d="M975.2,134.9c0-8.7,6.5-13.7,18-14.4l13.1-.8v-4.2c0-5.1-3.4-8-9.9-8s-9,2-10.1,5.4h-9.2c1-8.3,8.8-13.7,19.8-13.7s19,6,19,16.3v33.1h-9.2v-6.8h-.8c-3.1,5-8.7,7.9-14.5,7.6-8,.8-15.2-5-16.1-13,0-.5,0-1,0-1.5h0ZM1006.3,130.8v-4.1l-11.8.8c-6.7.4-9.7,2.7-9.7,7s3.8,6.9,9,6.9c6.3.6,11.9-3.9,12.5-10.2,0-.1,0-.2,0-.4h0Z"/>
            <path class="cls-1" d="M1030.8,100.2h9.2v7.7h.7c2.5-5.7,8.3-9.1,14.4-8.6,8.7-.7,16.2,5.8,16.9,14.5,0,1.2,0,2.3-.1,3.5v31.3h-9.6v-28.9c0-7.8-3.4-11.7-10.4-11.7-6.1-.3-11.3,4.4-11.6,10.6,0,.6,0,1.1,0,1.7v28.3h-9.6v-48.4h0Z"/>
            <path class="cls-1" d="M1104.3,99.3c10.9,0,18,5.1,18.9,13.6h-9.2c-.9-3.6-4.4-5.8-9.8-5.8s-9.4,2.5-9.4,6.3,2.4,4.7,7.7,5.9l8,1.9c9.2,2.1,13.5,6.1,13.5,13.2s-8.5,15.2-20.1,15.2-19-5.2-19.9-13.8h9.6c1.7,4.2,6.1,6.7,10.5,6,5.9,0,10.2-2.7,10.2-6.5s-2.3-4.8-7.1-5.9l-8.4-2c-9.2-2.2-13.5-6.3-13.5-13.5s7.9-14.6,18.8-14.6h0Z"/>
          </g>
        </g>
      </g>
      <g>
        <path class="cls-1" d="M369,184.8h20v133.5h-20v-133.5Z"/>
        <path class="cls-1" d="M413,233.6l10.9-48.8h19.4l-13.2,48.8h-17.1Z"/>
        <path class="cls-1" d="M518.9,282.2h-50.9l-12.2,36.1h-21.5l48.2-133.5h22.4l48.2,133.5h-21.9l-12.2-36.1h0ZM473.3,265.5h40.3l-19.9-58.6h-.6l-19.9,58.6Z"/>
        <path class="cls-1" d="M657.1,269.6c0,30.2-16.2,49.7-40.6,49.7-12.6.7-24.5-6-30.6-17h-.5v48.2h-20v-129.5h19.3v16.2h.4c6.4-11,18.3-17.6,31-17.2,24.7,0,41,19.5,41,49.7h0ZM636.5,269.6c0-19.7-10.2-32.7-25.7-32.7s-25.5,13.2-25.5,32.7,10.3,32.7,25.5,32.7,25.7-12.9,25.7-32.7Z"/>
        <path class="cls-1" d="M764.2,269.6c0,30.2-16.2,49.7-40.6,49.7-12.6.7-24.5-6-30.6-17h-.5v48.2h-20v-129.5h19.3v16.2h.4c6.4-11,18.3-17.6,31-17.2,24.7,0,41,19.5,41,49.7h0ZM743.6,269.6c0-19.7-10.2-32.7-25.7-32.7s-25.5,13.2-25.5,32.7,10.3,32.7,25.5,32.7,25.7-12.9,25.7-32.7Z"/>
        <path class="cls-1" d="M835,281.1c1.5,13.2,14.3,21.9,31.9,21.9s29-8.7,29-20.6-7.3-16.6-24.6-20.8l-17.3-4.2c-24.5-5.9-35.9-17.4-35.9-36s20.1-38.8,48.6-38.8,47.5,15.8,48.2,38.9h-20.2c-1.2-13.3-12.2-21.4-28.3-21.4s-27.1,8.1-27.1,20,7,15,24.2,19.2l14.7,3.6c27.4,6.5,38.8,17.5,38.8,37s-19.9,40.6-51.5,40.6-49.6-15.3-50.9-39.4h20.5,0Z"/>
        <path class="cls-1" d="M960,197.9v23h18.5v15.8h-18.5v53.6c0,8.3,3.7,12.2,11.8,12.2,2.2,0,4.4-.2,6.6-.5v15.7c-3.7.7-7.4,1-11.1.9-19.7,0-27.4-7.4-27.4-26.3v-55.8h-14.2v-15.8h14.2v-23h20.1Z"/>
        <path class="cls-1" d="M989.2,269.6c0-30.6,18-49.9,46.2-49.9s46.2,19.2,46.2,49.9-17.8,49.9-46.2,49.9-46.2-19.2-46.2-49.9ZM1061.2,269.6c0-21-9.6-33.4-25.8-33.4s-25.8,12.5-25.8,33.4,9.6,33.4,25.8,33.4,25.8-12.3,25.8-33.4h0Z"/>
        <path class="cls-1" d="M1098,220.9h19.1v16.6h.5c2.7-10.7,12.4-18,23.4-17.6,2.3,0,4.6.2,6.8.8v18.7c-2.9-.9-5.9-1.3-9-1.2-11.1-.4-20.5,8.2-20.9,19.3,0,1,0,2.1.1,3.1v57.7h-20v-97.3h0Z"/>
        <path class="cls-1" d="M1239.9,289.7c-2.7,17.7-19.9,29.8-41.9,29.8s-45.9-19-45.9-49.4,17.7-50.3,45-50.3,43.8,18.5,43.8,48v6.8h-68.7v1.2c-1.2,13.9,9.1,26.2,23,27.5,1.1,0,2.1.1,3.2,0,9.7.9,18.8-4.7,22.5-13.7h19ZM1172.3,260.6h48.7c.7-12.9-9.2-23.9-22.1-24.7-.6,0-1.2,0-1.8,0-13.6,0-24.7,10.9-24.8,24.5v.2h0Z"/>
      </g>
    </g>
  </g>
</svg>