<svg width="26" height="26" viewBox="0 0 26 26" fill="none" xmlns="http://www.w3.org/2000/svg">
<path d="M0 8.72083C0 5.63609 0 4.09372 0.609844 2.91972C1.12375 1.9304 1.9304 1.12375 2.91972 0.609844C4.09372 0 5.63609 0 8.72083 0H17.2792C20.3639 0 21.9063 0 23.0803 0.609844C24.0696 1.12375 24.8762 1.9304 25.3902 2.91972C26 4.09372 26 5.63609 26 8.72083V17.2792C26 20.3639 26 21.9063 25.3902 23.0803C24.8762 24.0696 24.0696 24.8762 23.0803 25.3902C21.9063 26 20.3639 26 17.2792 26H8.72083C5.63609 26 4.09372 26 2.91972 25.3902C1.9304 24.8762 1.12375 24.0696 0.609844 23.0803C0 21.9063 0 20.3639 0 17.2792V8.72083Z" fill="#1EA1F2"/>
<path d="M0 8.72083C0 5.63609 0 4.09372 0.609844 2.91972C1.12375 1.9304 1.9304 1.12375 2.91972 0.609844C4.09372 0 5.63609 0 8.72083 0H17.2792C20.3639 0 21.9063 0 23.0803 0.609844C24.0696 1.12375 24.8762 1.9304 25.3902 2.91972C26 4.09372 26 5.63609 26 8.72083V17.2792C26 20.3639 26 21.9063 25.3902 23.0803C24.8762 24.0696 24.0696 24.8762 23.0803 25.3902C21.9063 26 20.3639 26 17.2792 26H8.72083C5.63609 26 4.09372 26 2.91972 25.3902C1.9304 24.8762 1.12375 24.0696 0.609844 23.0803C0 21.9063 0 20.3639 0 17.2792V8.72083Z" fill="url(#paint0_linear_10_2916)"/>
<path fill-rule="evenodd" clip-rule="evenodd" d="M18.0888 4.82006L8.07352 4.88864C6.26429 4.90103 4.80767 6.37773 4.82006 8.18696L4.88813 18.1279C4.90052 19.9372 6.37723 21.3938 8.18645 21.3814L18.2017 21.3128C20.0109 21.3004 21.4676 19.8237 21.4552 18.0145L21.3871 8.07352C21.3747 6.2643 19.898 4.80767 18.0888 4.82006ZM8.06106 3.0687C5.24671 3.08797 2.98085 5.38507 3.00012 8.19942L3.06819 18.1404C3.08746 20.9547 5.38456 23.2206 8.19891 23.2013L18.2142 23.1328C21.0285 23.1135 23.2944 20.8164 23.2751 18.002L23.207 8.06106C23.1878 5.24671 20.8907 2.98085 18.0763 3.00012L8.06106 3.0687ZM9.38582 13.1648C9.40001 15.2369 11.0913 16.9052 13.1633 16.891C15.2354 16.8768 16.9037 15.1855 16.8895 13.1135C16.8753 11.0414 15.184 9.37315 13.112 9.38733C11.0399 9.40152 9.37163 11.0928 9.38582 13.1648ZM13.0995 7.56739C10.0223 7.58847 7.54481 10.1001 7.56588 13.1773C7.58695 16.2545 10.0986 18.732 13.1758 18.7109C16.253 18.6898 18.7305 16.1782 18.7094 13.101C18.6883 10.0238 16.1767 7.54632 13.0995 7.56739ZM18.6802 8.45672C19.1931 8.45321 19.6061 8.03454 19.6026 7.52159C19.599 7.00865 19.1804 6.59567 18.6674 6.59919C18.1545 6.6027 17.7415 7.02137 17.745 7.53431C17.7485 8.04726 18.1672 8.46023 18.6802 8.45672Z" fill="white"/>
<defs>
<linearGradient id="paint0_linear_10_2916" x1="24.1521" y1="1.64738" x2="1.46446" y2="24.2671" gradientUnits="userSpaceOnUse">
<stop stop-color="#8000FF"/>
<stop offset="0.544134" stop-color="#D50087"/>
<stop offset="1" stop-color="#FFD600"/>
</linearGradient>
</defs>
</svg>
