<svg width="155" height="24" viewBox="0 0 155 24" fill="none" xmlns="http://www.w3.org/2000/svg">
<g clip-path="url(#clip0_4762_2292)">
<path d="M39.3282 5.50506C40.3086 6.44406 40.7988 7.61781 40.7988 9.0263C40.7988 10.4348 40.3086 11.6154 39.3282 12.5683C38.3478 13.5072 37.1188 13.9767 35.6412 13.9767H33.7563V18.7822H30.7529V4.07585H35.6412C37.1188 4.07585 38.3478 4.55226 39.3282 5.50506ZM37.2569 10.5591C37.6711 10.1586 37.8783 9.6477 37.8783 9.0263C37.8783 8.40491 37.6711 7.89398 37.2569 7.49353C36.8426 7.09307 36.2903 6.89285 35.5998 6.89285H33.7563V11.1598H35.5998C36.2903 11.1598 36.8426 10.9595 37.2569 10.5591Z" fill="white"/>
<path d="M46.3496 19.0101C45.1206 19.0101 44.1609 18.5958 43.4705 17.7673C42.7939 16.9387 42.4555 15.8271 42.4555 14.4324V8.42562H45.2933V13.956C45.2933 15.5993 45.8801 16.4209 47.0539 16.4209C47.7167 16.4209 48.2345 16.1723 48.6074 15.6752C48.994 15.1781 49.1873 14.4462 49.1873 13.4796V8.42562H52.025V18.7822H49.1873V17.6016C48.5521 18.5406 47.6062 19.0101 46.3496 19.0101Z" fill="white"/>
<path d="M60.598 19.0101C59.9352 19.0101 59.3345 18.872 58.796 18.5958C58.2574 18.3196 57.857 17.9951 57.5946 17.6223V18.7822H54.7569V3.24733H57.5946V9.58556C57.857 9.21272 58.2574 8.88821 58.796 8.61204C59.3345 8.33586 59.9352 8.19777 60.598 8.19777C61.9651 8.19777 63.1181 8.72941 64.0571 9.79269C64.9961 10.856 65.4656 12.1264 65.4656 13.6039C65.4656 15.0815 64.9961 16.3519 64.0571 17.4151C63.1181 18.4784 61.9651 19.0101 60.598 19.0101ZM58.071 15.6338C58.5543 16.1585 59.1895 16.4209 59.9766 16.4209C60.7637 16.4209 61.392 16.1585 61.8615 15.6338C62.3448 15.1091 62.5865 14.4324 62.5865 13.6039C62.5865 12.7754 62.3448 12.0988 61.8615 11.574C61.392 11.0493 60.7637 10.7869 59.9766 10.7869C59.1895 10.7869 58.5543 11.0493 58.071 11.574C57.6015 12.0988 57.3668 12.7754 57.3668 13.6039C57.3668 14.4324 57.6015 15.1091 58.071 15.6338Z" fill="white"/>
<path d="M67.5408 18.7822V3.24733H70.3785V18.7822H67.5408Z" fill="white"/>
<path d="M74.5119 6.72714C74.0286 6.72714 73.6075 6.55453 73.2484 6.20931C72.8894 5.85028 72.7099 5.42221 72.7099 4.92509C72.7099 4.42798 72.8894 4.00681 73.2484 3.66159C73.6075 3.30256 74.0286 3.12305 74.5119 3.12305C75.0229 3.12305 75.4509 3.30256 75.7962 3.66159C76.1552 4.00681 76.3347 4.42798 76.3347 4.92509C76.3347 5.42221 76.1552 5.85028 75.7962 6.20931C75.4509 6.55453 75.0229 6.72714 74.5119 6.72714ZM73.1034 18.7822V8.42562H75.9411V18.7822H73.1034Z" fill="white"/>
<path d="M82.6637 19.0101C81.3381 19.0101 80.2403 18.6786 79.3703 18.0158C78.5004 17.353 78.0378 16.5107 77.9825 15.4888H80.9445C80.9997 15.9307 81.1931 16.269 81.5245 16.5038C81.8559 16.7247 82.2632 16.8352 82.7466 16.8352C83.6441 16.8352 84.0929 16.559 84.0929 16.0066C84.0929 15.7305 83.9893 15.5233 83.7822 15.3852C83.5889 15.2333 83.2575 15.0953 82.788 14.971L80.8409 14.4739C79.9572 14.2391 79.2944 13.8456 78.8525 13.2932C78.4244 12.7271 78.2104 12.0504 78.2104 11.2633C78.2104 10.3658 78.5832 9.63389 79.3289 9.06773C80.0884 8.48776 81.1033 8.19777 82.3737 8.19777C83.5337 8.19777 84.5003 8.49466 85.2736 9.08844C86.0469 9.66841 86.4749 10.4624 86.5578 11.4705H83.6994C83.5751 10.7662 83.1194 10.4141 82.3323 10.4141C81.9595 10.4141 81.6626 10.4831 81.4416 10.6212C81.2207 10.7593 81.1102 10.9526 81.1102 11.2012C81.1102 11.6569 81.5038 11.9745 82.2909 12.154L84.1136 12.6511C85.1217 12.8997 85.8535 13.2932 86.3092 13.8318C86.7649 14.3565 86.9928 15.0331 86.9928 15.8616C86.9928 16.8145 86.5854 17.5808 85.7707 18.1608C84.9698 18.727 83.9341 19.0101 82.6637 19.0101Z" fill="white"/>
<path d="M91.8806 18.7822H89.0429V3.24733H91.8806V9.60627C92.5158 8.66727 93.5031 8.19777 94.8426 8.19777C96.0854 8.19777 97.0589 8.61204 97.7631 9.44056C98.4812 10.2553 98.8402 11.3462 98.8402 12.7132V18.7822H96.0025V13.1896C96.0025 12.4302 95.8437 11.8433 95.5261 11.429C95.2085 11.001 94.7597 10.7869 94.1797 10.7869C93.4893 10.7869 92.93 11.0355 92.502 11.5326C92.0877 12.0297 91.8806 12.7616 91.8806 13.7282V18.7822Z" fill="white"/>
<path d="M102.851 6.72714C102.368 6.72714 101.946 6.55453 101.587 6.20931C101.228 5.85028 101.049 5.42221 101.049 4.92509C101.049 4.42798 101.228 4.00681 101.587 3.66159C101.946 3.30256 102.368 3.12305 102.851 3.12305C103.362 3.12305 103.79 3.30256 104.135 3.66159C104.494 4.00681 104.674 4.42798 104.674 4.92509C104.674 5.42221 104.494 5.85028 104.135 6.20931C103.79 6.55453 103.362 6.72714 102.851 6.72714ZM101.442 18.7822V8.42562H104.28V18.7822H101.442Z" fill="white"/>
<path d="M107.005 18.7822V8.42562H109.843V9.60627C110.478 8.66727 111.465 8.19777 112.805 8.19777C114.048 8.19777 115.021 8.61204 115.725 9.44056C116.443 10.2553 116.802 11.3462 116.802 12.7132V18.7822H113.965V13.1896C113.965 12.4302 113.806 11.8433 113.488 11.429C113.171 11.001 112.722 10.7869 112.142 10.7869C111.452 10.7869 110.892 11.0355 110.464 11.5326C110.05 12.0297 109.843 12.7616 109.843 13.7282V18.7822H107.005Z" fill="white"/>
<path d="M124.231 23.3184C122.795 23.3184 121.621 22.9525 120.71 22.2206C119.798 21.4887 119.287 20.5566 119.177 19.4243H121.952C122.311 20.4462 123.092 20.9571 124.293 20.9571C124.956 20.9571 125.508 20.7431 125.95 20.315C126.406 19.8869 126.634 19.2862 126.634 18.5129V17.2909C126.344 17.6913 125.929 18.0227 125.391 18.2851C124.852 18.5336 124.265 18.6579 123.63 18.6579C122.277 18.6579 121.124 18.1539 120.171 17.1459C119.218 16.124 118.742 14.8881 118.742 13.4382C118.742 11.9745 119.218 10.7386 120.171 9.73055C121.124 8.7087 122.277 8.19777 123.63 8.19777C124.279 8.19777 124.866 8.32896 125.391 8.59133C125.929 8.83988 126.344 9.17129 126.634 9.58556V8.42562H129.471V18.1401C129.471 19.8938 128.967 21.1918 127.959 22.0342C126.965 22.8903 125.722 23.3184 124.231 23.3184ZM122.367 15.3438C122.878 15.8409 123.499 16.0895 124.231 16.0895C124.963 16.0895 125.584 15.8409 126.095 15.3438C126.606 14.8467 126.861 14.2115 126.861 13.4382C126.861 12.6649 126.606 12.0297 126.095 11.5326C125.584 11.0355 124.963 10.7869 124.231 10.7869C123.499 10.7869 122.878 11.0355 122.367 11.5326C121.856 12.0297 121.6 12.6649 121.6 13.4382C121.6 14.2115 121.856 14.8467 122.367 15.3438Z" fill="white"/>
<path fill-rule="evenodd" clip-rule="evenodd" d="M151.763 6.7164C151.28 6.7164 150.859 6.54379 150.5 6.19857C150.141 5.83954 149.961 5.41147 149.961 4.91435C149.961 4.41723 150.141 3.99607 150.5 3.65085C150.859 3.29182 151.28 3.1123 151.763 3.1123C152.274 3.1123 152.702 3.29182 153.048 3.65085C153.407 3.99607 153.586 4.41723 153.586 4.91435C153.586 5.41147 153.407 5.83954 153.048 6.19857C152.702 6.54379 152.274 6.7164 151.763 6.7164ZM150.355 18.7715V8.41488H153.193V18.7715H150.355ZM133.72 18.9465C133.14 18.9465 132.65 18.7463 132.25 18.3458C131.849 17.9454 131.649 17.4552 131.649 16.8752C131.649 16.2952 131.849 15.805 132.25 15.4045C132.65 15.0041 133.14 14.8039 133.72 14.8039C134.286 14.8039 134.77 15.011 135.17 15.4253C135.584 15.8257 135.792 16.309 135.792 16.8752C135.792 17.4413 135.584 17.9316 135.17 18.3458C134.77 18.7463 134.286 18.9465 133.72 18.9465ZM143.966 8.57156C143.428 8.29538 142.827 8.15729 142.164 8.15729C140.797 8.15729 139.644 8.68894 138.705 9.75221C137.766 10.8155 137.297 12.0859 137.297 13.5634C137.297 15.041 137.766 16.3114 138.705 17.3747C139.644 18.4379 140.797 18.9696 142.164 18.9696C142.827 18.9696 143.428 18.8315 143.966 18.5553C144.505 18.2791 144.905 17.9546 145.168 17.5818V18.7686H148.005V8.38514H145.168V9.54508C144.905 9.17224 144.505 8.84774 143.966 8.57156ZM142.786 10.7464C143.573 10.7464 144.208 11.0088 144.691 11.5335C145.161 12.0583 145.396 12.7349 145.396 13.5634C145.396 14.392 145.161 15.0686 144.691 15.5933C144.208 16.1181 143.573 16.3804 142.786 16.3804C141.999 16.3804 141.37 16.1181 140.901 15.5933C140.417 15.0686 140.176 14.392 140.176 13.5634C140.176 12.7349 140.417 12.0583 140.901 11.5335C141.37 11.0088 141.999 10.7464 142.786 10.7464Z" fill="url(#paint0_linear_4762_2292)"/>
<rect width="23.3962" height="23.3962" rx="7.31132" fill="url(#paint1_linear_4762_2292)"/>
<path d="M14.6713 18.8412C14.2826 18.8412 13.954 18.707 13.6856 18.4386C13.4172 18.1701 13.283 17.8416 13.283 17.4528C13.283 17.0641 13.4172 16.7355 13.6856 16.4671C13.954 16.1987 14.2826 16.0645 14.6713 16.0645C15.0508 16.0645 15.3748 16.2033 15.6432 16.481C15.9209 16.7494 16.0597 17.0733 16.0597 17.4528C16.0597 17.8323 15.9209 18.1609 15.6432 18.4386C15.3748 18.707 15.0508 18.8412 14.6713 18.8412Z" fill="white"/>
<path d="M6.87988 17.1273V17.1273C6.87988 18.0704 7.64444 18.835 8.58758 18.835H8.84394C9.92867 18.835 10.808 17.9557 10.808 16.8709V14.409C8.22721 14.2732 6.87988 15.2459 6.87988 17.1273Z" fill="#0781F2"/>
<path d="M6.87988 17.1273V17.1273C6.87988 18.0704 7.64444 18.835 8.58758 18.835H8.84394C9.92867 18.835 10.808 17.9557 10.808 16.8709V14.409C8.22721 14.2732 6.87988 15.2459 6.87988 17.1273Z" fill="url(#paint2_linear_4762_2292)"/>
<path d="M6.87988 17.1273V17.1273C6.87988 18.0704 7.64444 18.835 8.58758 18.835H8.84394C9.92867 18.835 10.808 17.9557 10.808 16.8709V14.409C8.22721 14.2732 6.87988 15.2459 6.87988 17.1273Z" fill="url(#paint3_linear_4762_2292)"/>
<path fill-rule="evenodd" clip-rule="evenodd" d="M12.6063 14.4043C15.3283 14.4043 17.5349 12.1977 17.5349 9.47569C17.5349 6.82655 15.4449 4.66557 12.8238 4.55176L12.8237 4.55176H9.19797C7.91773 4.55176 6.87989 5.5896 6.87989 6.86984L6.87992 14.3207C6.8799 14.326 6.87988 14.3313 6.87988 14.3365V17.1563C6.87988 15.2749 8.40508 14.409 10.2864 14.409H12.6063L12.6063 14.4043Z" fill="white"/>
</g>
<defs>
<linearGradient id="paint0_linear_4762_2292" x1="140.814" y1="7.81225" x2="146.108" y2="24.9434" gradientUnits="userSpaceOnUse">
<stop stop-color="#EE28FF"/>
<stop offset="1" stop-color="#4B41FF"/>
</linearGradient>
<linearGradient id="paint1_linear_4762_2292" x1="10.7427" y1="2.48614e-07" x2="16.2443" y2="21.1451" gradientUnits="userSpaceOnUse">
<stop stop-color="#EE28FF"/>
<stop offset="1" stop-color="#1154FF"/>
</linearGradient>
<linearGradient id="paint2_linear_4762_2292" x1="9.36774" y1="18.5887" x2="7.26665" y2="12.8456" gradientUnits="userSpaceOnUse">
<stop stop-color="#2858FF"/>
<stop offset="1" stop-color="#132C85"/>
</linearGradient>
<linearGradient id="paint3_linear_4762_2292" x1="9.36774" y1="18.5887" x2="6.60429" y2="12.8623" gradientUnits="userSpaceOnUse">
<stop stop-color="white"/>
<stop offset="1" stop-color="#5E6B97"/>
</linearGradient>
<clipPath id="clip0_4762_2292">
<rect width="155" height="23.3962" fill="white"/>
</clipPath>
</defs>
</svg>
