<?xml version="1.0" encoding="UTF-8"?>
<svg id="Calque_2" data-name="Calque 2" xmlns="http://www.w3.org/2000/svg" xmlns:xlink="http://www.w3.org/1999/xlink" version="1.1" viewBox="0 0 770.3 228.2">
  <defs>
    <style>
      .cls-1 {
        fill: url(#Dégradé_sans_nom);
      }

      .cls-1, .cls-2, .cls-3, .cls-4, .cls-5 {
        stroke-width: 0px;
      }

      .cls-6 {
        stroke-width: .2px;
      }

      .cls-6, .cls-4 {
        fill: #000;
      }

      .cls-6, .cls-7 {
        stroke: #fff;
        stroke-miterlimit: 10;
      }

      .cls-2 {
        fill: url(#Dégradé_sans_nom_2);
      }

      .cls-3 {
        fill: url(#Dégradé_sans_nom_3);
      }

      .cls-5 {
        fill: #70c8f2;
      }

      .cls-7 {
        fill: #fff;
      }
    </style>
    <linearGradient id="Dégradé_sans_nom" data-name="Dégradé sans nom" x1="177.4" y1="115.9" x2="39.4" y2="115.9" gradientTransform="translate(0 230) scale(1 -1)" gradientUnits="userSpaceOnUse">
      <stop offset="0" stop-color="#ffdf00"/>
      <stop offset=".4" stop-color="#f9bb00"/>
      <stop offset=".8" stop-color="#f5a200"/>
      <stop offset="1" stop-color="#f49a00"/>
    </linearGradient>
    <linearGradient id="Dégradé_sans_nom_2" data-name="Dégradé sans nom 2" x1="141.6" y1="102.8" x2="11.8" y2="-27" gradientTransform="translate(0 230) scale(1 -1)" gradientUnits="userSpaceOnUse">
      <stop offset="0" stop-color="#e6383c"/>
      <stop offset="1" stop-color="#c70e66"/>
    </linearGradient>
    <linearGradient id="Dégradé_sans_nom_3" data-name="Dégradé sans nom 3" x1="11.3" y1="259.3" x2="117.2" y2="153.4" gradientTransform="translate(0 230) scale(1 -1)" gradientUnits="userSpaceOnUse">
      <stop offset="0" stop-color="#229866"/>
      <stop offset=".2" stop-color="#339e63"/>
      <stop offset=".5" stop-color="#5aae5e"/>
      <stop offset=".8" stop-color="#73b75b"/>
      <stop offset="1" stop-color="#7cbb5a"/>
    </linearGradient>
  </defs>
  <g id="Calque_1-2" data-name="Calque 1-2">
    <g>
      <rect class="cls-7" width="770.3" height="228.2" rx="28.5" ry="28.5"/>
      <path class="cls-4" d="M388.8,124.1c-13.4,0-24.4,10.2-24.4,24.3s10.9,24.3,24.4,24.3,24.4-10.3,24.4-24.3-10.9-24.3-24.4-24.3h0ZM388.8,163.1c-7.4,0-13.7-6.1-13.7-14.7s6.3-14.7,13.7-14.7,13.7,6,13.7,14.7-6.3,14.7-13.7,14.7ZM335.6,124.1c-13.4,0-24.4,10.2-24.4,24.3s10.9,24.3,24.4,24.3,24.4-10.3,24.4-24.3-10.9-24.3-24.4-24.3ZM335.6,163.1c-7.4,0-13.7-6.1-13.7-14.7s6.3-14.7,13.7-14.7,13.7,6,13.7,14.7-6.3,14.7-13.7,14.7ZM272.4,131.6v10.3h24.6c-.7,5.8-2.7,10-5.6,13-3.6,3.6-9.2,7.5-19,7.5-15.2,0-27-12.2-27-27.4s11.9-27.4,27-27.4,14.2,3.2,18.6,7.3l7.3-7.3c-6.2-5.9-14.3-10.4-25.8-10.4-20.8,0-38.2,16.9-38.2,37.7s17.5,37.7,38.2,37.7,19.7-3.7,26.3-10.6c6.8-6.8,8.9-16.4,8.9-24.1s-.2-4.6-.5-6.4h-34.7ZM531,139.6c-2-5.4-8.2-15.4-20.8-15.4s-22.9,9.8-22.9,24.3,10.3,24.3,24.1,24.3,17.6-6.8,20.2-10.8l-8.3-5.5c-2.8,4-6.5,6.7-12,6.7s-9.3-2.5-11.8-7.4l32.4-13.4-1.1-2.8h0ZM497.9,147.6c-.3-9.4,7.3-14.2,12.7-14.2s7.8,2.1,9,5.1l-21.7,9h0ZM471.5,171.2h10.7v-71.3h-10.7v71.3ZM454,129.5h-.4c-2.4-2.8-7-5.4-12.8-5.4-12.1,0-23.3,10.7-23.3,24.4s11.1,24.2,23.3,24.2,10.4-2.6,12.8-5.5h.4v3.5c0,9.3-5,14.2-13,14.2s-10.6-4.7-12.2-8.6l-9.3,3.9c2.7,6.4,9.7,14.3,21.5,14.3s23.1-7.4,23.1-25.3v-43.6h-10.1v4h0ZM441.8,163.1c-7.4,0-13.5-6.2-13.5-14.6s6.2-14.8,13.5-14.8,13,6.2,13,14.8-5.7,14.6-13,14.6ZM580.9,99.8h-25.5v71.3h10.7v-27h14.9c11.8,0,23.4-8.5,23.4-22.2s-11.6-22.2-23.4-22.2h0ZM581.2,134.2h-15.1v-24.4h15.1c8,0,12.5,6.6,12.5,12.2s-4.5,12.2-12.5,12.2h0ZM647,124c-7.7,0-15.7,3.4-19,10.9l9.5,3.9c2-3.9,5.8-5.2,9.7-5.2s11.1,3.3,11.2,9.2v.7c-1.9-1.1-6.1-2.8-11.1-2.8-10.2,0-20.6,5.6-20.6,16.1s8.3,15.7,17.7,15.7,11.1-3.2,13.6-7h.4v5.5h10.3v-27.4c0-12.7-9.5-19.7-21.7-19.7h0ZM645.7,163.1c-3.5,0-8.3-1.7-8.3-6.1s6.1-7.6,11.3-7.6,6.9,1,9.7,2.4c-.8,6.6-6.5,11.3-12.7,11.3h0ZM706.1,125.5l-12.2,30.9h-.4l-12.7-30.9h-11.5l19,43.2-10.8,24h11.1l29.3-67.3h-11.8,0ZM610.2,171.2h10.7v-71.3h-10.7v71.3Z"/>
      <g>
        <path class="cls-5" d="M59.5,43.1c-1.7,1.8-2.6,4.5-2.6,8v126.1c0,3.5,1,6.3,2.6,8l.4.4,70.6-70.6v-1.7L60,42.7l-.4.4Z"/>
        <path class="cls-1" d="M154.1,138.5l-23.5-23.6v-1.7l23.6-23.6.5.3,27.9,15.8c8,4.5,8,11.9,0,16.5l-27.9,15.9-.5.3h0Z"/>
        <path class="cls-2" d="M154.7,138.2l-24.1-24.1-71.1,71.1c2.6,2.8,7,3.1,11.8.4l83.3-47.3"/>
        <path class="cls-3" d="M154.7,90l-83.3-47.3c-4.9-2.8-9.2-2.4-11.8.3l71.1,71.1,24.1-24.1h0Z"/>
      </g>
      <g>
        <path class="cls-6" d="M235.5,74.2v-34.2h10.5c5.3,0,9.5,1.6,12.6,4.8,3.1,3.2,4.7,7.3,4.7,12.4s-1.6,9.2-4.7,12.4c-3.2,3.2-7.4,4.8-12.6,4.8h-10.5ZM239.9,70h6.1c3.9,0,7.1-1.1,9.4-3.4,2.3-2.3,3.5-5.4,3.5-9.5s-1.1-7.2-3.5-9.5c-2.3-2.3-5.4-3.4-9.4-3.4h-6.1v25.8h0Z"/>
        <path class="cls-6" d="M269.5,74.2v-34.2h4.4v34.2h-4.4Z"/>
        <path class="cls-6" d="M291.4,74.9c-2.5,0-4.9-.8-7.3-2.4-2.4-1.6-3.9-3.9-4.7-6.8l4-1.6c.5,1.9,1.5,3.5,2.9,4.8s3.1,1.9,5,1.9,3.5-.5,4.9-1.5,2-2.4,2-4.1-.7-3.4-2-4.4c-1.4-1-3.5-2-6.4-2.9-3-1-5.3-2.2-6.9-3.7-1.6-1.5-2.4-3.5-2.4-5.8s1-4.6,2.9-6.4c1.9-1.8,4.5-2.7,7.6-2.7s5.3.7,7.1,2.2c1.8,1.5,3,3,3.5,4.8l-4,1.7c-.3-1.1-1-2.1-2.1-3s-2.6-1.4-4.4-1.4-3.1.5-4.3,1.4c-1.2.9-1.8,2.1-1.8,3.5s.5,2.3,1.6,3.2c1.1.9,2.7,1.7,4.9,2.4,1.7.5,3.1,1.1,4.2,1.6,1.1.5,2.3,1.2,3.4,2s2,1.9,2.6,3.2.9,2.7.9,4.4-.3,3.1-1,4.4c-.7,1.3-1.6,2.3-2.7,3.1-1.1.8-2.4,1.3-3.7,1.7s-2.6.6-4,.6h0Z"/>
        <path class="cls-6" d="M313.6,74.2h-4.4v-34.2h11.7c2.9,0,5.4,1,7.5,2.9s3.2,4.4,3.2,7.3-1.1,5.4-3.2,7.3-4.6,2.9-7.5,2.9h-7.3v13.9h0ZM313.6,56.1h7.4c1.9,0,3.3-.6,4.5-1.9,1.1-1.2,1.7-2.6,1.7-4.1s-.6-2.9-1.7-4.1c-1.1-1.2-2.6-1.9-4.5-1.9h-7.4v12Z"/>
        <path class="cls-6" d="M365.1,69.8c-3.4,3.5-7.5,5.2-12.5,5.2s-9.2-1.7-12.5-5.2c-3.4-3.5-5-7.7-5-12.7s1.7-9.2,5-12.7c3.4-3.5,7.5-5.2,12.5-5.2s9.1,1.7,12.5,5.2c3.4,3.5,5.1,7.7,5.1,12.7s-1.7,9.2-5,12.7h0ZM343.2,66.9c2.5,2.6,5.6,3.8,9.3,3.8s6.8-1.3,9.3-3.8c2.5-2.6,3.8-5.8,3.8-9.8s-1.3-7.3-3.8-9.8c-2.5-2.6-5.6-3.8-9.3-3.8s-6.8,1.3-9.3,3.8c-2.5,2.6-3.8,5.8-3.8,9.8s1.3,7.3,3.8,9.8Z"/>
        <path class="cls-6" d="M376.3,74.2v-34.2h5.4l16.6,26.6h.2l-.2-6.6v-20h4.4v34.2h-4.6l-17.4-27.9h-.2l.2,6.6v21.3s-4.4,0-4.4,0Z"/>
        <path class="cls-6" d="M410.5,74.2v-34.2h4.4v34.2h-4.4Z"/>
        <path class="cls-6" d="M422.8,74.2v-34.2h12.4c2.7,0,5,.9,7,2.7,2,1.8,2.9,4,2.9,6.7s-.4,3.1-1.3,4.3c-.8,1.2-2,2.2-3.4,2.8v.2c1.7.6,3.1,1.6,4.2,3,1.1,1.4,1.6,3,1.6,4.9,0,2.8-1,5.1-3.1,7-2.1,1.8-4.5,2.8-7.3,2.8h-13.1ZM427.2,54.6h8c1.7,0,3-.5,4-1.7,1-1.1,1.5-2.3,1.5-3.6s-.5-2.5-1.5-3.6c-1-1.1-2.2-1.6-3.8-1.6h-8.2v10.5h0ZM427.2,70h8.9c1.7,0,3.1-.6,4.1-1.8s1.6-2.5,1.6-3.9-.5-2.7-1.6-3.8c-1.1-1.2-2.5-1.8-4.3-1.8h-8.6v11.2h0Z"/>
        <path class="cls-6" d="M452.1,74.2v-34.2h4.4v30h14.8v4.2h-19.2Z"/>
        <path class="cls-6" d="M496.9,44.2h-15.6v10.8h14.1v4.1h-14.1v10.8h15.6v4.2h-20v-34.2h20v4.2h0Z"/>
        <path class="cls-6" d="M523.5,74.9c-2.5,0-4.9-.8-7.3-2.4-2.4-1.6-3.9-3.9-4.7-6.8l4-1.6c.5,1.9,1.5,3.5,2.9,4.8s3.2,1.9,5,1.9,3.5-.5,4.9-1.5,2-2.4,2-4.1-.7-3.4-2-4.4c-1.3-1-3.5-2-6.4-2.9-3-1-5.3-2.2-6.9-3.7-1.6-1.5-2.3-3.5-2.3-5.8s1-4.6,2.9-6.4c1.9-1.8,4.5-2.7,7.6-2.7s5.3.7,7.1,2.2,3,3,3.5,4.8l-4,1.7c-.3-1.1-1-2.1-2.1-3s-2.6-1.4-4.4-1.4-3.1.5-4.3,1.4c-1.2.9-1.8,2.1-1.8,3.5s.5,2.3,1.7,3.2c1.1.9,2.7,1.7,4.8,2.4,1.7.5,3.1,1.1,4.2,1.6,1.1.5,2.3,1.2,3.4,2s2,1.9,2.6,3.2.9,2.7.9,4.4-.3,3.1-1,4.4-1.6,2.3-2.7,3.1c-1.1.8-2.3,1.3-3.7,1.7s-2.7.6-4,.6h0Z"/>
        <path class="cls-6" d="M553.1,74.9c-3.8,0-6.8-1.2-9.2-3.7-2.3-2.5-3.5-5.7-3.5-9.8v-21.5h4.4v21.7c0,2.7.7,4.9,2.1,6.6,1.4,1.7,3.5,2.5,6.2,2.5s4.7-.8,6.1-2.5c1.4-1.7,2.1-3.9,2.1-6.6v-21.7h4.4v21.5c0,4-1.1,7.3-3.4,9.8-2.3,2.5-5.4,3.7-9.2,3.7h0Z"/>
        <path class="cls-6" d="M572.9,74.2v-34.2h11.7c2.9,0,5.4,1,7.5,2.9,2.1,1.9,3.2,4.4,3.2,7.3s-.8,4.5-2.3,6.3c-1.6,1.8-3.5,3-5.8,3.5h0c0,.1,9.6,14.1,9.6,14.1v.2h-5.2l-9.2-13.9h-4.9v13.9h-4.4,0ZM577.3,56.2h7.1c1.8,0,3.3-.6,4.5-1.7s1.9-2.6,1.9-4.3-.6-2.9-1.7-4.1c-1.1-1.2-2.6-1.9-4.5-1.9h-7.4v12h0Z"/>
      </g>
    </g>
  </g>
</svg>