<?xml version="1.0" encoding="UTF-8"?>
<svg id="Calque_1" xmlns="http://www.w3.org/2000/svg" version="1.1" viewBox="0 0 126.6 126.6">
  <!-- Generator: Adobe Illustrator 29.5.1, SVG Export Plug-In . SVG Version: 2.1.0 Build 141)  -->
  <defs>
    <style>
      .st0 {
        fill: #0a0a0a;
      }

      .st1 {
        fill: #0bd9bd;
      }
    </style>
  </defs>
  <path class="st0" d="M0,0v126.6h126.6V0H0ZM113.2,68.1c-3.9,24.1-36.2,31.9-50.4,11.9-4.8-6.8-8.7-22.1-14.3-26.4-10.2-7.7-23.8,3.7-18.3,15.2,3.7,7.7,14.3,9.1,20,2.9,1.3,3,2.1,6.1,3.7,9,1,1.9,2.5,3.5,3.5,5.4-15.4,12.1-39.7,2.9-43.7-16.1-5.8-28.1,27.4-46.1,47.3-26.5,7.1,7,8.8,18.2,13.9,26.3,4.9,7.8,16,8,20.8,0,7.8-12.7-9.6-25.4-19.6-14.5-.7-2.6-1.5-5.2-2.7-7.6-1.2-2.6-3.1-4.8-4.4-7.3,20.8-13.8,48.1,2.8,44.1,27.8Z"/>
  <path class="st1" d="M69,40.3c1.3,2.6,3.2,4.7,4.4,7.3,1.2,2.4,2,5,2.7,7.6,10-10.9,27.4,1.9,19.6,14.5-4.8,7.9-15.9,7.7-20.8,0-5.1-8.1-6.8-19.3-13.9-26.3-19.9-19.6-53.1-1.6-47.3,26.5,4,19,28.3,28.2,43.7,16.1-1.1-1.8-2.5-3.5-3.5-5.4-1.6-2.9-2.4-6-3.7-9-5.7,6.2-16.3,4.8-20-2.9-5.5-11.5,8.1-22.9,18.3-15.2,5.7,4.3,9.5,19.6,14.3,26.4,14.2,20,46.6,12.2,50.4-11.9,4-24.9-23.4-41.5-44.1-27.8Z"/>
</svg>